<?xml version="1.0" encoding="UTF-8"?>
<svg width="10px" height="10px" viewBox="0 0 10 10" version="1.1" xmlns="http://www.w3.org/2000/svg" xmlns:xlink="http://www.w3.org/1999/xlink">
    <!-- Generator: Sketch 50.2 (55047) - http://www.bohemiancoding.com/sketch -->
    <title>close</title>
    <desc>Created with Sketch.</desc>
    <defs></defs>
    <g id="Page-2" stroke="none" stroke-width="1" fill="none" fill-rule="evenodd">
        <g id="Diretório---desktop" transform="translate(-7098.000000, -250.000000)" fill="#9B9B9B" fill-rule="nonzero">
            <g id="Group-5-Copy-2" transform="translate(6890.000000, 10.000000)">
                <g id="Group-5">
                    <g id="Group-9" transform="translate(100.000000, 232.000000)">
                        <path d="M117.826174,16.9869427 C118.057942,17.2187106 118.057942,17.5944061 117.826174,17.826174 C117.594406,18.057942 117.218711,18.057942 116.986943,17.826174 L113,13.8392314 L109.013057,17.826174 C108.781289,18.057942 108.405594,18.057942 108.173826,17.826174 C107.942058,17.5944061 107.942058,17.2187106 108.173826,16.9869427 L112.160769,13 L108.173826,9.01305735 C107.942058,8.78128941 107.942058,8.40559389 108.173826,8.17382595 C108.405594,7.94205802 108.781289,7.94205802 109.013057,8.17382595 L113,12.1607686 L116.986943,8.17382595 C117.218711,7.94205802 117.594406,7.94205802 117.826174,8.17382595 C118.057942,8.40559389 118.057942,8.78128941 117.826174,9.01305735 L113.839231,13 L117.826174,16.9869427 Z" id="close"></path>
                    </g>
                </g>
            </g>
        </g>
    </g>
</svg>