<svg xmlns="http://www.w3.org/2000/svg" width="1327" height="225" viewBox="0 0 1327 225">
    <g fill="#EAE3DD" fill-rule="evenodd" opacity=".3">
        <path d="M865.478 136.35c-10.448 0-20.173.564-28.354 1.534-1.364-2.72-4.941-4.666-9.152-4.666-3.032 0-5.741 1.007-7.53 2.586-3.152-4.718-9.897-7.988-17.734-7.988-8.6 0-15.89 3.934-18.55 9.403-3.134-2.444-7.813-4.001-13.05-4.001-3.506 0-6.763.698-9.476 1.894-.848-10.129-11.94-18.15-25.537-18.15-5.78 0-11.095 1.464-15.38 3.907 0-.086.007-.17.007-.256 0-16.907-17.53-30.613-39.153-30.613-14.807 0-27.692 6.429-34.346 15.91a8.472 8.472 0 0 0-4.807-1.504c-4.605 0-8.378 3.709-8.764 8.432a30.39 30.39 0 0 0-4.31-.329c-13.787 0-24.998 9.195-25.566 20.71l-.054-.001c-20.28 0-36.722 6.45-36.722 14.405 0 7.957 16.441 14.406 36.722 14.406 11.975 0 22.608-2.25 29.312-5.728C645.113 162.65 669.7 167 698.09 167c23.973 0 45.246-3.1 58.559-7.886 5.147 3.171 17.329 5.4 31.54 5.4 11.897 0 22.37-1.563 28.487-3.934 3.784.915 8.198 1.45 12.933 1.45 10.799 0 19.983-2.737 23.567-6.573 3.948.175 8.064.27 12.302.27 29.007 0 52.522-4.338 52.522-9.69 0-5.35-23.515-9.687-52.522-9.687M298.592 207.525c-5.398 0-10.453.31-14.802.85.027-.28.047-.564.047-.85 0-6.904-8.126-12.5-18.149-12.5-5.261 0-9.997 1.544-13.312 4.007-4.192-4.82-11.658-8.032-20.177-8.032-13.115 0-23.75 7.612-23.75 17 0 .111.01.22.013.33-3.991.811-6.865 3.046-6.865 5.682 0 .433.08.853.226 1.26-9.163.626-15.823 2.517-15.823 4.754 0 2.747 10.051 4.974 22.45 4.974 5.688 0 10.88-.47 14.837-1.242a32.031 32.031 0 0 0 8.912 1.242c5.179 0 9.967-1.19 13.869-3.203 5.196 1.952 13.194 3.203 22.17 3.203 11.56 0 21.494-2.074 25.912-5.046 1.45.047 2.932.072 4.442.072 16.242 0 29.408-2.8 29.408-6.25 0-3.453-13.166-6.251-29.408-6.251M1025.791 11.675c-2.03 0-3.907.13-5.43.352a2.09 2.09 0 0 0 .058-.466c0-2.086-3.036-3.778-6.779-3.778-.532 0-1.049.038-1.545.103C1011.614 3.481 1005.74 0 998.56 0c-7.125 0-12.962 3.428-13.523 7.784h-.048c-4.98 0-9.018 1.69-9.018 3.777 0 .038.005.076.007.114h-.007c-3.85 0-6.971 1.178-6.971 2.633 0 1.454 3.122 2.633 6.971 2.633 1.99 0 3.78-.317 5.05-.822.501 1.622 4.132 2.881 8.54 2.881 3.654 0 6.773-.865 8.02-2.084a20.986 20.986 0 0 0 5.72-.508c1.82.987 5.946 1.676 10.749 1.676 6.399 0 11.598-1.224 11.734-2.747h.007c5.086 0 9.209-.819 9.209-1.83 0-1.012-4.123-1.832-9.209-1.832M215.977 106.856c-7.723 0-14.858.503-20.648 1.355.13-.59.218-1.187.218-1.794 0-8.015-11.543-14.513-25.782-14.513-2.024 0-3.984.144-5.873.393C162.06 75.373 139.722 62 112.416 62 85.322 62 63.12 75.167 60.988 91.906l-.183-.002c-18.941 0-34.294 6.498-34.294 14.513 0 .146.016.292.026.44l-.026-.001C11.87 106.856 0 111.384 0 116.97c0 5.587 11.87 10.115 26.511 10.115 7.565 0 14.374-1.215 19.204-3.155C47.622 130.163 61.43 135 78.195 135c13.892 0 25.754-3.322 30.497-8.008 1.232.054 2.47.093 3.724.093 6.345 0 12.42-.726 18.035-2.048 6.919 3.796 22.61 6.445 40.874 6.445 24.336 0 44.111-4.704 44.628-10.554h.024c19.343 0 35.023-3.15 35.023-7.036 0-3.886-15.68-7.036-35.023-7.036M1301.186 84.506c-5.692 0-10.951.241-15.218.649.095-.283.16-.568.16-.86 0-3.842-8.508-6.957-19.002-6.957-1.493 0-2.937.069-4.329.188-1.351-8.114-17.815-14.526-37.941-14.526-19.97 0-36.334 6.313-37.906 14.339l-.134-.001c-13.96 0-25.277 3.115-25.277 6.958 0 .07.012.14.02.21h-.02c-10.79 0-19.539 2.17-19.539 4.85 0 2.678 8.748 4.848 19.54 4.848 5.576 0 10.593-.583 14.154-1.512 1.405 2.988 11.584 5.308 23.94 5.308 10.239 0 18.981-1.594 22.477-3.84a92.02 92.02 0 0 0 2.745.044c4.677 0 9.154-.348 13.293-.98 5.099 1.819 16.665 3.09 30.126 3.09 17.937 0 32.513-2.257 32.893-5.062h.018c14.257 0 25.814-1.51 25.814-3.372 0-1.864-11.557-3.374-25.814-3.374"/>
    </g>
</svg>
