<?xml version="1.0" encoding="UTF-8"?>
<svg width="550px" height="482px" viewBox="0 0 550 482" version="1.1" xmlns="http://www.w3.org/2000/svg" xmlns:xlink="http://www.w3.org/1999/xlink">
    <!-- Generator: Sketch 51 (57462) - http://www.bohemiancoding.com/sketch -->
    <title>forum</title>
    <desc>Created with Sketch.</desc>
    <defs>
        <rect id="path-1" x="0" y="0" width="573" height="523"></rect>
    </defs>
    <g id="Page-1" stroke="none" stroke-width="1" fill="none" fill-rule="evenodd" opacity="0.9">
        <g id="Artboard" transform="translate(-1.000000, -218.000000)">
            <g id="Hero-Shot" transform="translate(1.000000, 0.000000)">
                <g id="forum" transform="translate(0.000000, 177.000000)">
                    <mask id="mask-2" fill="white">
                        <use xlink:href="#path-1"></use>
                    </mask>
                    <g id="Mask"></g>
                    <g id="Group-4" mask="url(#mask-2)">
                        <g transform="translate(-50.000000, 41.000000)">
                            <polygon id="Fill-1" fill="#F7F2ED" points="0 371.35436 335.656923 564.987789 599.330769 409.770836 599.330769 409.769299 266.369231 217.689992"></polygon>
                            <polygon id="Fill-2" fill="#F7F2ED" points="0 352.204075 335.656923 545.837504 599.330769 390.620551 599.330769 390.619014 266.369231 198.539707"></polygon>
                            <polygon id="Fill-3" fill="#F5ECE5" points="0 371.35436 335.656923 564.987789 335.656923 545.837196 0 352.203767"></polygon>
                            <polygon id="Fill-4" fill="#EAE3DD" points="335.657077 545.837504 335.657077 564.988096 599.330923 409.771144 599.330923 390.620551"></polygon>
                            <polygon id="Fill-5" fill="#F7F2ED" points="19.7335385 352.713968 333.285846 533.597757 579.598154 388.60173 268.562769 209.170607"></polygon>
                            <polygon id="Fill-6" fill="#F7F2ED" points="19.7335385 334.825888 333.285846 515.70814 579.598154 370.712113 268.562769 191.280989"></polygon>
                            <polygon id="Fill-7" fill="#F5ECE5" points="19.7335385 334.825888 19.7335385 352.714429 333.285846 533.598218 333.285846 515.70814"></polygon>
                            <polygon id="Fill-8" fill="#EAE3DD" points="333.286 515.70814 333.286 533.598218 579.598308 388.600654 579.598308 370.712113"></polygon>
                            <g id="Group-100" stroke-width="1" fill="none" transform="translate(47.000000, 0.293608)">
                                <path d="M73.0550769,296.128255 C60.2504615,296.128255 49.8704615,302.369338 49.8704615,310.067698 L49.8704615,317.896721 C49.8704615,325.595081 60.2504615,331.836163 73.0550769,331.836163 C85.8596923,331.836163 96.2396923,325.595081 96.2396923,317.896721 L96.2396923,310.067698 C96.2396923,302.369338 85.8596923,296.128255 73.0550769,296.128255" id="Fill-9" fill="#F5ECE5"></path>
                                <path d="M49.8707692,310.067544 C49.8707692,302.369184 60.2507692,296.128102 73.0553846,296.128102 C85.86,296.128102 96.24,302.369184 96.24,310.067544 C96.24,317.765904 85.86,324.006987 73.0553846,324.006987 C60.2507692,324.006987 49.8707692,317.765904 49.8707692,310.067544" id="Fill-11" fill="#F7F2ED"></path>
                                <polygon id="Fill-13" fill="#F0E6DF" points="58.7769231 305.208108 87.3353846 305.208108 87.3353846 133.412319 58.7769231 133.412319"></polygon>
                                <path d="M73.0550769,296.622162 C65.1689231,296.622162 58.7766154,300.465193 58.7766154,305.207493 L58.7766154,310.029729 C58.7766154,314.770492 65.1689231,318.61506 73.0550769,318.61506 C80.9412308,318.61506 87.3350769,314.770492 87.3350769,310.029729 L87.3350769,305.207493 C87.3350769,300.465193 80.9412308,296.622162 73.0550769,296.622162" id="Fill-15" fill="#F5ECE5"></path>
                                <path d="M58.7763077,305.20734 C58.7763077,300.466576 65.1686154,296.622008 73.0547692,296.622008 C80.9409231,296.622008 87.3347692,300.466576 87.3347692,305.20734 C87.3347692,309.948103 80.9409231,313.792671 73.0547692,313.792671 C65.1686154,313.792671 58.7763077,309.948103 58.7763077,305.20734" id="Fill-16" fill="#F0E6DF"></path>
                                <path d="M73.0550769,119.472569 C60.2504615,119.472569 49.8704615,125.713652 49.8704615,133.412012 L49.8704615,141.241035 C49.8704615,148.939395 60.2504615,155.180477 73.0550769,155.180477 C85.8596923,155.180477 96.2396923,148.939395 96.2396923,141.241035 L96.2396923,133.412012 C96.2396923,125.713652 85.8596923,119.472569 73.0550769,119.472569" id="Fill-17" fill="#F5ECE5"></path>
                                <path d="M49.8707692,133.411858 C49.8707692,125.713498 60.2507692,119.472416 73.0553846,119.472416 C85.86,119.472416 96.24,125.713498 96.24,133.411858 C96.24,141.110218 85.86,147.351301 73.0553846,147.351301 C60.2507692,147.351301 49.8707692,141.110218 49.8707692,133.411858" id="Fill-18" fill="#F7F2ED"></path>
                                <path d="M129.415538,268.066596 C116.610923,268.066596 106.230923,274.307678 106.230923,282.006038 L106.230923,289.835061 C106.230923,297.533421 116.610923,303.774504 129.415538,303.774504 C142.220154,303.774504 152.600154,297.533421 152.600154,289.835061 L152.600154,282.006038 C152.600154,274.307678 142.220154,268.066596 129.415538,268.066596" id="Fill-19" fill="#F5ECE5"></path>
                                <path d="M106.230462,282.005885 C106.230462,274.307525 116.612,268.066442 129.415077,268.066442 C142.221231,268.066442 152.601231,274.307525 152.601231,282.005885 C152.601231,289.704245 142.221231,295.945327 129.415077,295.945327 C116.612,295.945327 106.230462,289.704245 106.230462,282.005885" id="Fill-20" fill="#F7F2ED"></path>
                                <polygon id="Fill-21" fill="#F0E6DF" points="115.136923 277.144758 143.693846 277.144758 143.693846 105.350506 115.136923 105.350506"></polygon>
                                <path d="M129.415538,268.561271 C121.529385,268.561271 115.137077,272.404302 115.137077,277.145065 L115.137077,281.967301 C115.137077,286.709601 121.529385,290.552632 129.415538,290.552632 C137.301692,290.552632 143.694,286.709601 143.694,281.967301 L143.694,277.145065 C143.694,272.404302 137.301692,268.561271 129.415538,268.561271" id="Fill-22" fill="#F5ECE5"></path>
                                <path d="M115.136615,277.145834 C115.136615,272.405071 121.528923,268.56204 129.415077,268.56204 C137.301231,268.56204 143.693538,272.405071 143.693538,277.145834 C143.693538,281.886597 137.301231,285.731165 129.415077,285.731165 C121.528923,285.731165 115.136615,281.886597 115.136615,277.145834" id="Fill-23" fill="#F0E6DF"></path>
                                <path d="M129.415538,91.4110636 C116.610923,91.4110636 106.230923,97.6521461 106.230923,105.350506 L106.230923,113.179529 C106.230923,120.877889 116.610923,127.118972 129.415538,127.118972 C142.220154,127.118972 152.600154,120.877889 152.600154,113.179529 L152.600154,105.350506 C152.600154,97.6521461 142.220154,91.4110636 129.415538,91.4110636" id="Fill-24" fill="#F5ECE5"></path>
                                <path d="M106.230462,105.350967 C106.230462,97.6526073 116.612,91.4115248 129.415077,91.4115248 C142.221231,91.4115248 152.601231,97.6526073 152.601231,105.350967 C152.601231,113.049327 142.221231,119.29041 129.415077,119.29041 C116.612,119.29041 106.230462,113.049327 106.230462,105.350967" id="Fill-25" fill="#F7F2ED"></path>
                                <path d="M177.770462,238.131536 C164.965846,238.131536 154.585846,244.372618 154.585846,252.070978 L154.585846,259.900001 C154.585846,267.598361 164.965846,273.839444 177.770462,273.839444 C190.575077,273.839444 200.955077,267.598361 200.955077,259.900001 L200.955077,252.070978 C200.955077,244.372618 190.575077,238.131536 177.770462,238.131536" id="Fill-26" fill="#F5ECE5"></path>
                                <path d="M154.586,252.071439 C154.586,244.373079 164.966,238.131997 177.770615,238.131997 C190.575231,238.131997 200.955231,244.373079 200.955231,252.071439 C200.955231,259.769799 190.575231,266.010882 177.770615,266.010882 C164.966,266.010882 154.586,259.769799 154.586,252.071439" id="Fill-27" fill="#F7F2ED"></path>
                                <polygon id="Fill-28" fill="#F0E6DF" points="163.492308 247.212157 192.050769 247.212157 192.050769 75.4163681 163.492308 75.4163681"></polygon>
                                <path d="M177.770462,238.626211 C169.885846,238.626211 163.492,242.469242 163.492,247.211542 L163.492,252.03224 C163.492,256.774541 169.885846,260.617572 177.770462,260.617572 C185.656615,260.617572 192.050462,256.774541 192.050462,252.03224 L192.050462,247.211542 C192.050462,242.469242 185.656615,238.626211 177.770462,238.626211" id="Fill-29" fill="#F5ECE5"></path>
                                <path d="M163.492308,247.211388 C163.492308,242.470625 169.884615,238.626057 177.770769,238.626057 C185.656923,238.626057 192.050769,242.470625 192.050769,247.211388 C192.050769,251.952152 185.656923,255.795183 177.770769,255.795183 C169.884615,255.795183 163.492308,251.952152 163.492308,247.211388" id="Fill-30" fill="#F0E6DF"></path>
                                <path d="M177.770462,61.4758495 C164.965846,61.4758495 154.585846,67.7169321 154.585846,75.415292 L154.585846,83.244315 C154.585846,90.942675 164.965846,97.1837575 177.770462,97.1837575 C190.575077,97.1837575 200.955077,90.942675 200.955077,83.244315 L200.955077,75.415292 C200.955077,67.7169321 190.575077,61.4758495 177.770462,61.4758495" id="Fill-31" fill="#F5ECE5"></path>
                                <path d="M154.586,75.4159069 C154.586,67.717547 164.966,61.4764644 177.770615,61.4764644 C190.575231,61.4764644 200.955231,67.717547 200.955231,75.4159069 C200.955231,83.1142668 190.575231,89.3553494 177.770615,89.3553494 C164.966,89.3553494 154.586,83.1142668 154.586,75.4159069" id="Fill-32" fill="#F7F2ED"></path>
                                <path d="M96.2401538,133.411858 C96.2401538,131.006121 95.2263077,128.743344 93.4416923,126.768026 C93.0847692,126.372962 92.6970769,125.988659 92.2801538,125.618191 C91.4478462,124.877255 90.4986154,124.185509 89.4493846,123.555252 C86.8263077,121.979609 83.5801538,120.777509 79.9493846,120.099598 C77.7724615,119.692237 75.4555385,119.472416 73.0555385,119.472416 C68.254,119.472416 63.7924615,120.350164 60.0924615,121.853558 C58.8586154,122.354689 57.7109231,122.924995 56.6601538,123.555252 C55.6124615,124.185509 54.6632308,124.877255 53.8309231,125.618191 C53.414,125.988659 53.0263077,126.372962 52.6693846,126.768026 C50.8847692,128.743344 49.8709231,131.006121 49.8709231,133.411858 L49.8709231,141.240881 C49.8709231,145.69726 53.3616923,149.655582 58.7755385,152.208892 L58.7755385,299.100302 C58.0386154,299.447712 57.3232308,299.813569 56.6601538,300.210169 C55.6124615,300.840427 54.6632308,301.532172 53.8309231,302.274646 C53.414,302.645114 53.0263077,303.02788 52.6693846,303.422943 C50.8847692,305.398261 49.8709231,307.662575 49.8709231,310.066776 L49.8709231,317.895799 C49.8709231,325.595696 60.2509231,331.836778 73.0555385,331.836778 C85.8601538,331.836778 96.2401538,325.595696 96.2401538,317.895799 L96.2401538,310.066776 C96.2401538,307.662575 95.2263077,305.398261 93.4416923,303.422943 C93.0847692,303.02788 92.6970769,302.645114 92.2801538,302.274646 C91.4478462,301.532172 90.4986154,300.840427 89.4493846,300.210169 C88.7863077,299.813569 88.0724615,299.447712 87.334,299.100302 L87.334,152.208892 C92.7478462,149.655582 96.2401538,145.69726 96.2401538,141.240881 L96.2401538,133.411858 Z" id="Fill-33" fill="#EADFD6"></path>
                                <polygon id="Fill-34" fill="#F7F2ED" points="74.7475385 343.336665 274.033692 458.301709 430.584462 366.145823 232.896769 252.103106"></polygon>
                                <polygon id="Fill-35" fill="#F7F2ED" points="74.7475385 143.732549 274.033692 258.697594 430.584462 166.54017 232.896769 52.49899"></polygon>
                                <polygon id="Fill-36" fill="#F5ECE5" points="74.7475385 143.732549 74.7475385 343.336511 274.033692 458.301556 274.033692 258.697594"></polygon>
                                <polygon id="Fill-37" fill="#EADFD6" points="274.033846 258.696979 430.584615 166.541092 430.584615 366.145054 274.033846 458.302478"></polygon>
                                <polygon id="Fill-38" fill="#F5ECE5" points="94.1901538 194.981521 231.765538 433.918138 274.033231 458.301402 274.033231 298.729526"></polygon>
                                <path d="M47.412,328.417249 C34.6073846,328.417249 24.2273846,334.658332 24.2273846,342.356692 L24.2273846,350.185715 C24.2273846,357.882537 34.6073846,364.125157 47.412,364.125157 C60.2166154,364.125157 70.5966154,357.882537 70.5966154,350.185715 L70.5966154,342.356692 C70.5966154,334.658332 60.2166154,328.417249 47.412,328.417249" id="Fill-39" fill="#F5ECE5"></path>
                                <path d="M24.2269231,342.356538 C24.2269231,334.658178 34.6069231,328.417096 47.4115385,328.417096 C60.2176923,328.417096 70.5976923,334.658178 70.5976923,342.356538 C70.5976923,350.054898 60.2176923,356.295981 47.4115385,356.295981 C34.6069231,356.295981 24.2269231,350.054898 24.2269231,342.356538" id="Fill-40" fill="#F7F2ED"></path>
                                <polygon id="Fill-41" fill="#F0E6DF" points="33.1338462 337.495719 61.6907692 337.495719 61.6907692 165.701467 33.1338462 165.701467"></polygon>
                                <path d="M47.412,328.911156 C39.5258462,328.911156 33.1335385,332.754187 33.1335385,337.49495 L33.1335385,342.317185 C33.1335385,347.059486 39.5258462,350.902517 47.412,350.902517 C55.2981538,350.902517 61.6904615,347.059486 61.6904615,342.317185 L61.6904615,337.49495 C61.6904615,332.754187 55.2981538,328.911156 47.412,328.911156" id="Fill-42" fill="#F5ECE5"></path>
                                <path d="M33.1332308,337.495565 C33.1332308,332.754802 39.5255385,328.911771 47.4116923,328.911771 C55.2978462,328.911771 61.6901538,332.754802 61.6901538,337.495565 C61.6901538,342.237865 55.2978462,346.080896 47.4116923,346.080896 C39.5255385,346.080896 33.1332308,342.237865 33.1332308,337.495565" id="Fill-43" fill="#F0E6DF"></path>
                                <path d="M47.412,151.761563 C34.6073846,151.761563 24.2273846,158.002646 24.2273846,165.701006 L24.2273846,173.530029 C24.2273846,181.228389 34.6073846,187.469471 47.412,187.469471 C60.2166154,187.469471 70.5966154,181.228389 70.5966154,173.530029 L70.5966154,165.701006 C70.5966154,158.002646 60.2166154,151.761563 47.412,151.761563" id="Fill-44" fill="#F5ECE5"></path>
                                <path d="M24.2269231,165.700852 C24.2269231,158.002492 34.6069231,151.761409 47.4115385,151.761409 C60.2176923,151.761409 70.5976923,158.002492 70.5976923,165.700852 C70.5976923,173.399212 60.2176923,179.640294 47.4115385,179.640294 C34.6069231,179.640294 24.2269231,173.399212 24.2269231,165.700852" id="Fill-45" fill="#F7F2ED"></path>
                                <path d="M85.7353846,351.858971 C72.9307692,351.858971 62.5507692,358.10159 62.5507692,365.798413 L62.5507692,373.627436 C62.5507692,381.325796 72.9307692,387.566878 85.7353846,387.566878 C98.54,387.566878 108.92,381.325796 108.92,373.627436 L108.92,365.798413 C108.92,358.10159 98.54,351.858971 85.7353846,351.858971" id="Fill-46" fill="#F5ECE5"></path>
                                <path d="M62.5510769,365.799028 C62.5510769,358.100668 72.9310769,351.859585 85.7356923,351.859585 C98.5403077,351.859585 108.920308,358.100668 108.920308,365.799028 C108.920308,373.497388 98.5403077,379.73847 85.7356923,379.73847 C72.9310769,379.73847 62.5510769,373.497388 62.5510769,365.799028" id="Fill-47" fill="#F7F2ED"></path>
                                <polygon id="Fill-48" fill="#F0E6DF" points="71.4569231 360.938208 100.015385 360.938208 100.015385 189.143957 71.4569231 189.143957"></polygon>
                                <path d="M85.7353846,352.354414 C77.8492308,352.354414 71.4569231,356.197445 71.4569231,360.938208 L71.4569231,365.760444 C71.4569231,370.502744 77.8492308,374.345775 85.7353846,374.345775 C93.6215385,374.345775 100.015385,370.502744 100.015385,365.760444 L100.015385,360.938208 C100.015385,356.197445 93.6215385,352.354414 85.7353846,352.354414" id="Fill-49" fill="#F5ECE5"></path>
                                <path d="M71.4564615,360.938055 C71.4564615,356.197291 77.8487692,352.35426 85.7349231,352.35426 C93.6210769,352.35426 100.014923,356.197291 100.014923,360.938055 C100.014923,365.680355 93.6210769,369.523386 85.7349231,369.523386 C77.8487692,369.523386 71.4564615,365.680355 71.4564615,360.938055" id="Fill-50" fill="#F0E6DF"></path>
                                <path d="M85.7353846,175.204053 C72.9307692,175.204053 62.5507692,181.445136 62.5507692,189.143496 L62.5507692,196.972519 C62.5507692,204.670878 72.9307692,210.911961 85.7353846,210.911961 C98.54,210.911961 108.92,204.670878 108.92,196.972519 L108.92,189.143496 C108.92,181.445136 98.54,175.204053 85.7353846,175.204053" id="Fill-51" fill="#F5ECE5"></path>
                                <path d="M62.5510769,189.143342 C62.5510769,181.444982 72.9310769,175.203899 85.7356923,175.203899 C98.5403077,175.203899 108.920308,181.444982 108.920308,189.143342 C108.920308,196.841702 98.5403077,203.082784 85.7356923,203.082784 C72.9310769,203.082784 62.5510769,196.841702 62.5510769,189.143342" id="Fill-52" fill="#F7F2ED"></path>
                                <path d="M207.297077,419.691391 C194.492462,419.691391 184.112462,425.932473 184.112462,433.630833 L184.112462,441.459856 C184.112462,449.158216 194.492462,455.399299 207.297077,455.399299 C220.101692,455.399299 230.481692,449.158216 230.481692,441.459856 L230.481692,433.630833 C230.481692,425.932473 220.101692,419.691391 207.297077,419.691391" id="Fill-53" fill="#F5ECE5"></path>
                                <path d="M184.112,433.631448 C184.112,425.931551 194.492,419.692005 207.296615,419.692005 C220.102769,419.692005 230.482769,425.931551 230.482769,433.631448 C230.482769,441.329808 220.102769,447.569353 207.296615,447.569353 C194.492,447.569353 184.112,441.329808 184.112,433.631448" id="Fill-54" fill="#F7F2ED"></path>
                                <polygon id="Fill-55" fill="#F0E6DF" points="193.018462 428.770782 221.575385 428.770782 221.575385 256.97653 193.018462 256.97653"></polygon>
                                <path d="M207.297077,420.185297 C199.410923,420.185297 193.018615,424.029865 193.018615,428.770628 L193.018615,433.592864 C193.018615,438.333627 199.410923,442.178195 207.297077,442.178195 C215.183231,442.178195 221.575538,438.333627 221.575538,433.592864 L221.575538,428.770628 C221.575538,424.029865 215.183231,420.185297 207.297077,420.185297" id="Fill-56" fill="#F5ECE5"></path>
                                <path d="M193.018308,428.770628 C193.018308,424.029865 199.410615,420.185297 207.296769,420.185297 C215.182923,420.185297 221.575231,424.029865 221.575231,428.770628 C221.575231,433.512929 215.182923,437.35596 207.296769,437.35596 C199.410615,437.35596 193.018308,433.512929 193.018308,428.770628" id="Fill-57" fill="#F0E6DF"></path>
                                <path d="M207.297077,243.035858 C194.492462,243.035858 184.112462,249.276941 184.112462,256.975301 L184.112462,264.804324 C184.112462,272.502684 194.492462,278.743766 207.297077,278.743766 C220.101692,278.743766 230.481692,272.502684 230.481692,264.804324 L230.481692,256.975301 C230.481692,249.276941 220.101692,243.035858 207.297077,243.035858" id="Fill-58" fill="#F5ECE5"></path>
                                <path d="M184.112,256.975916 C184.112,249.277556 194.492,243.036473 207.296615,243.036473 C220.102769,243.036473 230.482769,249.277556 230.482769,256.975916 C230.482769,264.674276 220.102769,270.915358 207.296615,270.915358 C194.492,270.915358 184.112,264.674276 184.112,256.975916" id="Fill-59" fill="#F7F2ED"></path>
                                <path d="M245.620462,443.13388 C232.815846,443.13388 222.435846,449.374963 222.435846,457.073323 L222.435846,464.902346 C222.435846,472.600706 232.815846,478.841788 245.620462,478.841788 C258.425077,478.841788 268.805077,472.600706 268.805077,464.902346 L268.805077,457.073323 C268.805077,449.374963 258.425077,443.13388 245.620462,443.13388" id="Fill-60" fill="#F5ECE5"></path>
                                <path d="M222.435385,457.073938 C222.435385,449.374041 232.815385,443.134495 245.62,443.134495 C258.426154,443.134495 268.806154,449.374041 268.806154,457.073938 C268.806154,464.772298 258.426154,471.011843 245.62,471.011843 C232.815385,471.011843 222.435385,464.772298 222.435385,457.073938" id="Fill-61" fill="#F7F2ED"></path>
                                <polygon id="Fill-62" fill="#F0E6DF" points="231.343077 452.213272 259.9 452.213272 259.9 280.41902 231.343077 280.41902"></polygon>
                                <path d="M245.620462,443.627787 C237.734308,443.627787 231.342,447.472355 231.342,452.213118 L231.342,457.035354 C231.342,461.776117 237.734308,465.620685 245.620462,465.620685 C253.506615,465.620685 259.898923,461.776117 259.898923,457.035354 L259.898923,452.213118 C259.898923,447.472355 253.506615,443.627787 245.620462,443.627787" id="Fill-63" fill="#F5ECE5"></path>
                                <path d="M231.341538,452.213118 C231.341538,447.472355 237.733846,443.627787 245.62,443.627787 C253.506154,443.627787 259.898462,447.472355 259.898462,452.213118 C259.898462,456.955419 253.506154,460.79845 245.62,460.79845 C237.733846,460.79845 231.341538,456.955419 231.341538,452.213118" id="Fill-64" fill="#F0E6DF"></path>
                                <path d="M245.620462,266.478348 C232.815846,266.478348 222.435846,272.719431 222.435846,280.417791 L222.435846,288.246814 C222.435846,295.945173 232.815846,302.186256 245.620462,302.186256 C258.425077,302.186256 268.805077,295.945173 268.805077,288.246814 L268.805077,280.417791 C268.805077,272.719431 258.425077,266.478348 245.620462,266.478348" id="Fill-65" fill="#F5ECE5"></path>
                                <path d="M222.435385,280.418405 C222.435385,272.720045 232.815385,266.478963 245.62,266.478963 C258.426154,266.478963 268.806154,272.720045 268.806154,280.418405 C268.806154,288.116765 258.426154,294.357848 245.62,294.357848 C232.815385,294.357848 222.435385,288.116765 222.435385,280.418405" id="Fill-66" fill="#F7F2ED"></path>
                                <path d="M325.868308,440.891087 C313.063692,440.891087 302.683692,447.133707 302.683692,454.83053 L302.683692,462.659553 C302.683692,470.35945 313.063692,476.600533 325.868308,476.600533 C338.672923,476.600533 349.052923,470.35945 349.052923,462.659553 L349.052923,454.83053 C349.052923,447.133707 338.672923,440.891087 325.868308,440.891087" id="Fill-67" fill="#F5ECE5"></path>
                                <path d="M302.683231,454.831145 C302.683231,447.132785 313.063231,440.891702 325.867846,440.891702 C338.674,440.891702 349.054,447.132785 349.054,454.831145 C349.054,462.529505 338.674,468.770587 325.867846,468.770587 C313.063231,468.770587 302.683231,462.529505 302.683231,454.831145" id="Fill-68" fill="#F7F2ED"></path>
                                <polygon id="Fill-69" fill="#F0E6DF" points="311.590769 449.972016 340.147692 449.972016 340.147692 278.176227 311.590769 278.176227"></polygon>
                                <path d="M325.868308,441.386531 C317.982154,441.386531 311.589846,445.229562 311.589846,449.971863 L311.589846,454.792561 C311.589846,459.534861 317.982154,463.377892 325.868308,463.377892 C333.754462,463.377892 340.146769,459.534861 340.146769,454.792561 L340.146769,449.971863 C340.146769,445.229562 333.754462,441.386531 325.868308,441.386531" id="Fill-70" fill="#F5ECE5"></path>
                                <path d="M311.589538,449.971863 C311.589538,445.229562 317.981846,441.386531 325.868,441.386531 C333.754154,441.386531 340.146462,445.229562 340.146462,449.971863 C340.146462,454.712626 333.754154,458.555657 325.868,458.555657 C317.981846,458.555657 311.589538,454.712626 311.589538,449.971863" id="Fill-71" fill="#F0E6DF"></path>
                                <path d="M325.868308,264.236324 C313.063692,264.236324 302.683692,270.477406 302.683692,278.175766 L302.683692,286.004789 C302.683692,293.703149 313.063692,299.944232 325.868308,299.944232 C338.672923,299.944232 349.052923,293.703149 349.052923,286.004789 L349.052923,278.175766 C349.052923,270.477406 338.672923,264.236324 325.868308,264.236324" id="Fill-72" fill="#F5ECE5"></path>
                                <path d="M302.683231,278.175612 C302.683231,270.477253 313.063231,264.23617 325.867846,264.23617 C338.674,264.23617 349.054,270.477253 349.054,278.175612 C349.054,285.873972 338.674,292.115055 325.867846,292.115055 C313.063231,292.115055 302.683231,285.873972 302.683231,278.175612" id="Fill-73" fill="#F7F2ED"></path>
                                <path d="M382.228,412.830965 C369.424923,412.830965 359.044923,419.072048 359.044923,426.76887 L359.044923,434.597893 C359.044923,442.297791 369.424923,448.538873 382.228,448.538873 C395.032615,448.538873 405.412615,442.297791 405.412615,434.597893 L405.412615,426.76887 C405.412615,419.072048 395.032615,412.830965 382.228,412.830965" id="Fill-74" fill="#F5ECE5"></path>
                                <path d="M359.044462,426.769485 C359.044462,419.071125 369.424462,412.83158 382.227538,412.83158 C395.033692,412.83158 405.413692,419.071125 405.413692,426.769485 C405.413692,434.469382 395.033692,440.708928 382.227538,440.708928 C369.424462,440.708928 359.044462,434.469382 359.044462,426.769485" id="Fill-75" fill="#F7F2ED"></path>
                                <polygon id="Fill-76" fill="#F0E6DF" points="367.949231 421.910203 396.507692 421.910203 396.507692 250.114414 367.949231 250.114414"></polygon>
                                <path d="M382.228,413.324871 C374.341846,413.324871 367.949538,417.167903 367.949538,421.910203 L367.949538,426.730901 C367.949538,431.473202 374.341846,435.316233 382.228,435.316233 C390.114154,435.316233 396.508,431.473202 396.508,426.730901 L396.508,421.910203 C396.508,417.167903 390.114154,413.324871 382.228,413.324871" id="Fill-77" fill="#F5ECE5"></path>
                                <path d="M367.949077,421.910203 C367.949077,417.167903 374.341385,413.324871 382.227538,413.324871 C390.113692,413.324871 396.507538,417.167903 396.507538,421.910203 C396.507538,426.650966 390.113692,430.495535 382.227538,430.495535 C374.341385,430.495535 367.949077,426.650966 367.949077,421.910203" id="Fill-78" fill="#F0E6DF"></path>
                                <path d="M382.228,236.174664 C369.424923,236.174664 359.044923,242.415747 359.044923,250.114107 L359.044923,257.94313 C359.044923,265.64149 369.424923,271.882572 382.228,271.882572 C395.032615,271.882572 405.412615,265.64149 405.412615,257.94313 L405.412615,250.114107 C405.412615,242.415747 395.032615,236.174664 382.228,236.174664" id="Fill-79" fill="#F5ECE5"></path>
                                <path d="M359.044462,250.114722 C359.044462,242.416362 369.424462,236.175279 382.227538,236.175279 C395.033692,236.175279 405.413692,242.416362 405.413692,250.114722 C405.413692,257.813081 395.033692,264.054164 382.227538,264.054164 C369.424462,264.054164 359.044462,257.813081 359.044462,250.114722" id="Fill-80" fill="#F7F2ED"></path>
                                <path d="M430.584308,382.895905 C417.779692,382.895905 407.399692,389.136987 407.399692,396.83381 L407.399692,404.662833 C407.399692,412.36273 417.779692,418.603813 430.584308,418.603813 C443.388923,418.603813 453.768923,412.36273 453.768923,404.662833 L453.768923,396.83381 C453.768923,389.136987 443.388923,382.895905 430.584308,382.895905" id="Fill-81" fill="#F5ECE5"></path>
                                <path d="M407.399231,396.834425 C407.399231,389.136065 417.779231,382.89652 430.583846,382.89652 C443.39,382.89652 453.77,389.136065 453.77,396.834425 C453.77,404.534322 443.39,410.773867 430.583846,410.773867 C417.779231,410.773867 407.399231,404.534322 407.399231,396.834425" id="Fill-82" fill="#F7F2ED"></path>
                                <polygon id="Fill-83" fill="#F0E6DF" points="416.306154 391.976065 444.863077 391.976065 444.863077 220.180276 416.306154 220.180276"></polygon>
                                <path d="M430.584308,383.389811 C422.698154,383.389811 416.305846,387.232842 416.305846,391.975143 L416.305846,396.797378 C416.305846,401.538141 422.698154,405.381172 430.584308,405.381172 C438.470462,405.381172 444.862769,401.538141 444.862769,396.797378 L444.862769,391.975143 C444.862769,387.232842 438.470462,383.389811 430.584308,383.389811" id="Fill-84" fill="#F5ECE5"></path>
                                <path d="M416.305538,391.975143 C416.305538,387.232842 422.697846,383.389811 430.584,383.389811 C438.470154,383.389811 444.862462,387.232842 444.862462,391.975143 C444.862462,396.715906 438.470154,400.560474 430.584,400.560474 C422.697846,400.560474 416.305538,396.715906 416.305538,391.975143" id="Fill-85" fill="#F0E6DF"></path>
                                <path d="M430.584308,206.239604 C417.779692,206.239604 407.399692,212.480686 407.399692,220.179046 L407.399692,228.008069 C407.399692,235.706429 417.779692,241.947512 430.584308,241.947512 C443.388923,241.947512 453.768923,235.706429 453.768923,228.008069 L453.768923,220.179046 C453.768923,212.480686 443.388923,206.239604 430.584308,206.239604" id="Fill-86" fill="#F5ECE5"></path>
                                <path d="M407.399231,220.179661 C407.399231,212.481301 417.779231,206.240219 430.583846,206.240219 C443.39,206.240219 453.77,212.481301 453.77,220.179661 C453.77,227.878021 443.39,234.119104 430.583846,234.119104 C417.779231,234.119104 407.399231,227.878021 407.399231,220.179661" id="Fill-87" fill="#F7F2ED"></path>
                                <polygon id="Fill-88" fill="#F7F2ED" points="0.00753846154 170.925683 279.789077 332.142376 484.667538 211.535762 206.978308 51.5288552"></polygon>
                                <polygon id="Fill-89" fill="#F7F2ED" points="0.00753846154 156.045928 279.789077 317.262621 484.667538 196.656006 206.978308 36.6475627"></polygon>
                                <polygon id="Fill-90" fill="#F5ECE5" points="0.00753846154 156.045928 0.00753846154 170.926145 279.789077 332.1413 279.789077 317.262621"></polygon>
                                <polygon id="Fill-91" fill="#EAE3DD" points="279.789692 317.261852 279.789692 332.142069 484.668154 211.535454 484.668154 196.655238"></polygon>
                                <polygon id="Fill-92" fill="#EADFD6" points="279.789692 317.261852 151.654308 105.661484 334.389692 0.244066035 484.668154 196.655238"></polygon>
                                <polygon id="Fill-93" fill="#F5ECE5" points="151.654154 105.661023 0.008 156.046235 206.978769 36.6478701 334.389538 0.243604871"></polygon>
                            </g>
                        </g>
                    </g>
                    <path d="M511.592277,292.524691 C506.19412,292.524691 501.138529,292.835279 496.790041,293.375088 C496.817007,293.094268 496.836981,292.811464 496.836981,292.524691 C496.836981,285.621293 488.711281,280.024749 478.687987,280.024749 C473.426656,280.024749 468.69066,281.56876 465.375862,284.031637 C461.184175,279.211067 453.71764,276 445.199437,276 C432.084062,276 421.449543,283.611896 421.449543,293 C421.449543,293.111137 421.458531,293.219297 421.461528,293.330434 C417.470587,294.141139 414.597229,296.375788 414.597229,299.012316 C414.597229,299.444957 414.677128,299.864698 414.822943,300.271539 C405.659558,300.897677 399,302.788991 399,305.025625 C399,307.77329 409.051259,310 421.449543,310 C427.138332,310 432.329751,309.530644 436.286735,308.757647 C439.039246,309.556444 442.046434,310 445.199437,310 C450.377873,310 455.165804,308.810238 459.067858,306.796871 C464.264271,308.748716 472.262133,310 481.238754,310 C492.797102,310 502.731509,307.926103 507.149909,304.954179 C508.599072,305.000817 510.082192,305.025625 511.592277,305.025625 C527.83369,305.025625 541,302.22636 541,298.775158 C541,295.322963 527.83369,292.524691 511.592277,292.524691" id="Fill-18" fill="#FFFFFF" mask="url(#mask-2)"></path>
                    <path d="M214.976674,110.855712 C207.254106,110.855712 200.119113,111.358863 194.329438,112.210502 C194.458565,111.620983 194.546651,111.024433 194.546651,110.416836 C194.546651,102.401579 183.004339,95.9038081 168.765384,95.9038081 C166.7414,95.9038081 164.781479,96.0484262 162.891627,96.2974906 C161.059832,79.3731565 138.721939,66 111.416177,66 C84.321622,66 62.1188615,79.1672766 59.9877729,95.9058166 C59.926713,95.9058166 59.8656532,95.9038081 59.8045933,95.9038081 C40.8640301,95.9038081 25.5109829,102.401579 25.5109829,110.416836 C25.5109829,110.563463 25.5269986,110.709085 25.5370084,110.856716 C25.5279996,110.856716 25.5199917,110.855712 25.5109829,110.855712 C10.8696332,110.855712 -1,115.384066 -1,120.96994 C-1,126.556818 10.8696332,131.085172 25.5109829,131.085172 C33.0763976,131.085172 39.8850706,129.869979 44.7148042,127.929686 C46.621673,134.163328 60.4312075,139 77.194637,139 C91.0872528,139 102.948878,135.677801 107.691526,130.991773 C108.923734,131.046005 110.161948,131.085172 111.416177,131.085172 C117.761396,131.085172 123.835349,130.359069 129.450852,129.03742 C136.369633,132.832641 152.061012,135.481964 170.324912,135.481964 C194.660763,135.481964 214.436145,130.777859 214.952651,124.927856 C214.960659,124.927856 214.968667,124.92886 214.976674,124.92886 C234.319632,124.92886 250,121.778395 250,117.891784 C250,114.006177 234.319632,110.855712 214.976674,110.855712" id="Fill-29" fill="#FFFFFF" mask="url(#mask-2)"></path>
                </g>
            </g>
        </g>
    </g>
</svg>