<?xml version="1.0" encoding="UTF-8"?>
<svg width="200px" height="200px" viewBox="0 0 200 200" version="1.1" xmlns="http://www.w3.org/2000/svg" xmlns:xlink="http://www.w3.org/1999/xlink">
    <!-- Generator: Sketch 50.2 (55047) - http://www.bohemiancoding.com/sketch -->
    <title>img-seguranca</title>
    <desc>Created with Sketch.</desc>
    <defs>
        <circle id="path-1" cx="100" cy="100" r="100"></circle>
        <path d="M0,219 L77.9597424,131.745154 L89.3176694,117.984627 L93.1634837,113.325109 C93.9150674,112.414748 94.1552912,111.181991 93.7806166,110.063632 C87.9091017,92.5279483 93.9310824,83.0380575 99.4290401,80.1617477 C103.772807,77.8893738 106.626441,79.4872412 107.834636,80.4406873 C108.168715,80.7043986 108.274115,81.1612505 108.087895,81.5434461 C107.075976,83.6211936 104.567593,90.8992528 111.502424,96.1329926 C120.308393,102.778516 147.388498,92.8247163 154.737109,81.9464414 C155.253683,81.1813074 156.328917,81.0371948 156.99335,81.6786445 C158.974358,83.5911082 161.740096,87.7566318 158.534506,94.3003851 C158.125567,95.134604 158.071191,96.0954787 158.381806,96.9709258 C159.216816,99.3246416 160.189257,104.310641 155.368767,107.946142 C154.466345,108.626963 153.959082,109.692579 154.001913,110.820224 C154.079008,112.836315 153.438039,116.077735 149.135986,118.113511 C148.502465,118.413251 147.986264,118.910959 147.643247,119.520466 C146.287565,121.926182 141.235418,128.446535 129.969111,129.31344 L100.60595,164.598377 L58.2519271,219 L0,219 Z" id="path-3"></path>
        <filter x="-1.6%" y="-1.1%" width="103.1%" height="104.3%" filterUnits="objectBoundingBox" id="filter-4">
            <feOffset dx="0" dy="2" in="SourceAlpha" result="shadowOffsetOuter1"></feOffset>
            <feGaussianBlur stdDeviation="0.5" in="shadowOffsetOuter1" result="shadowBlurOuter1"></feGaussianBlur>
            <feColorMatrix values="0 0 0 0 0   0 0 0 0 0   0 0 0 0 0  0 0 0 0.15 0" type="matrix" in="shadowBlurOuter1"></feColorMatrix>
        </filter>
        <path d="M112.831551,160.013404 C112.831551,160.013404 114.408754,164.810449 107.910948,165.885778 C101.413142,166.961108 94.9572093,160.179005 95.0002137,156.655867 C95.0413318,153.281842 98.0523905,152.884687 99.780109,153.023046" id="path-5"></path>
        <filter x="-13.9%" y="-11.5%" width="127.8%" height="146.2%" filterUnits="objectBoundingBox" id="filter-6">
            <feOffset dx="0" dy="2" in="SourceAlpha" result="shadowOffsetOuter1"></feOffset>
            <feGaussianBlur stdDeviation="0.5" in="shadowOffsetOuter1" result="shadowBlurOuter1"></feGaussianBlur>
            <feColorMatrix values="0 0 0 0 0   0 0 0 0 0   0 0 0 0 0  0 0 0 0.5 0" type="matrix" in="shadowBlurOuter1"></feColorMatrix>
        </filter>
        <path d="M121.720478,152.242317 C121.720478,152.242317 123.924438,160.418344 115.955007,160.971028 C107.985575,161.523711 97.4303833,154.062487 98.0239685,147.70663 C98.4662262,142.970135 104.26724,142.977136 104.281163,143.003665" id="path-7"></path>
        <filter x="-10.4%" y="-8.3%" width="120.8%" height="133.3%" filterUnits="objectBoundingBox" id="filter-8">
            <feOffset dx="0" dy="2" in="SourceAlpha" result="shadowOffsetOuter1"></feOffset>
            <feGaussianBlur stdDeviation="0.5" in="shadowOffsetOuter1" result="shadowBlurOuter1"></feGaussianBlur>
            <feColorMatrix values="0 0 0 0 0   0 0 0 0 0   0 0 0 0 0  0 0 0 0.5 0" type="matrix" in="shadowBlurOuter1"></feColorMatrix>
        </filter>
        <path d="M131.481762,143.282664 C131.481762,143.282664 134.677926,150.363566 125.195426,151.799344 C115.712925,153.235123 105.263066,146.684382 104.143438,141.12074 C103.02381,135.557097 108.719357,132.952594 112.169303,134.38945" id="path-9"></path>
        <filter x="-8.9%" y="-8.3%" width="117.9%" height="133.3%" filterUnits="objectBoundingBox" id="filter-10">
            <feOffset dx="0" dy="2" in="SourceAlpha" result="shadowOffsetOuter1"></feOffset>
            <feGaussianBlur stdDeviation="0.5" in="shadowOffsetOuter1" result="shadowBlurOuter1"></feGaussianBlur>
            <feColorMatrix values="0 0 0 0 0   0 0 0 0 0   0 0 0 0 0  0 0 0 0.5 0" type="matrix" in="shadowBlurOuter1"></feColorMatrix>
        </filter>
        <path d="M136.502395,127.971409 C136.502395,127.971409 142.549666,133.741774 135.824743,140.674607 C129.099821,147.607439 111.553115,137.377202 111.043864,131.636067 C110.49113,125.403638 115.281486,124.841516 118.690009,125.02889 C122.098531,125.216264 129.46831,128.495306 132.047732,130.931167" id="path-11"></path>
        <filter x="-8.9%" y="-8.3%" width="117.9%" height="133.3%" filterUnits="objectBoundingBox" id="filter-12">
            <feOffset dx="0" dy="2" in="SourceAlpha" result="shadowOffsetOuter1"></feOffset>
            <feGaussianBlur stdDeviation="0.5" in="shadowOffsetOuter1" result="shadowBlurOuter1"></feGaussianBlur>
            <feColorMatrix values="0 0 0 0 0   0 0 0 0 0   0 0 0 0 0  0 0 0 0.5 0" type="matrix" in="shadowBlurOuter1"></feColorMatrix>
        </filter>
        <path d="M89.0524912,117.19322 C93.9867458,134.635811 87.1463011,141 83.826055,141 C81.2074877,141 77.1353904,129.896329 75.5317115,125.203235 C75.0609744,123.826685 74.8982824,122.359621 75.0617122,120.91066 C75.6346391,115.818932 77.5526346,103.521245 82.9653735,99.7664683 C85.6481323,97.9052967 88.3371627,96.786708 91,96" id="path-13"></path>
        <filter x="-43.8%" y="-11.1%" width="187.5%" height="131.1%" filterUnits="objectBoundingBox" id="filter-14">
            <feOffset dx="0" dy="2" in="SourceAlpha" result="shadowOffsetOuter1"></feOffset>
            <feGaussianBlur stdDeviation="2" in="shadowOffsetOuter1" result="shadowBlurOuter1"></feGaussianBlur>
            <feColorMatrix values="0 0 0 0 0   0 0 0 0 0   0 0 0 0 0  0 0 0 0.5 0" type="matrix" in="shadowBlurOuter1"></feColorMatrix>
        </filter>
    </defs>
    <g id="Page-1" stroke="none" stroke-width="1" fill="none" fill-rule="evenodd">
        <g id="Home" transform="translate(-176.000000, -998.000000)">
            <g id="img-seguranca" transform="translate(176.000000, 998.000000)">
                <mask id="mask-2" fill="white">
                    <use xlink:href="#path-1"></use>
                </mask>
                <use id="Mask" fill="#D1A593" xlink:href="#path-1"></use>
                <g id="Group-30" mask="url(#mask-2)">
                    <g transform="translate(-19.000000, -10.000000)">
                        <polygon id="Fill-1" fill="#55585A" fill-rule="evenodd" points="138 128.756429 134.278099 128 128 130.5 133.388363 133"></polygon>
                        <path d="M89.8036919,118.5 C94.879056,135.906413 87.4938794,141 84.0786811,141 C81.3852281,141 77.1966771,129.91936 75.5467568,125.236 C75.0625576,123.862304 74.8955923,122.398284 75.0633165,120.952705 C75.652628,115.871538 77.6258536,103.598981 83.1933858,99.8519922 C85.9528661,97.9946809 89.0390669,96.7850763 91.7784354,96 L96,112.522732 L89.8036919,118.5 Z" id="Fill-2" fill="#55585A" fill-rule="evenodd"></path>
                        <path d="M205,0 L153.900004,82.8134699 C153.900004,82.8134699 141.38643,102.536161 113.274009,98.4401446 C113.274009,98.4401446 98.5323487,92.7913657 108.403275,81.4658806 L156.631851,0 L205,0 Z" id="Fill-4" fill="#55585A" fill-rule="evenodd"></path>
                        <g id="Fill-6" fill="none">
                            <use fill="black" fill-opacity="1" filter="url(#filter-4)" xlink:href="#path-3"></use>
                            <use fill="#EAE3DD" fill-rule="evenodd" xlink:href="#path-3"></use>
                        </g>
                        <g id="Fill-10" fill="none">
                            <use fill="black" fill-opacity="1" filter="url(#filter-6)" xlink:href="#path-5"></use>
                            <use fill="#55585A" fill-rule="evenodd" xlink:href="#path-5"></use>
                        </g>
                        <g id="Fill-14" fill="none">
                            <use fill="black" fill-opacity="1" filter="url(#filter-8)" xlink:href="#path-7"></use>
                            <use fill="#55585A" fill-rule="evenodd" xlink:href="#path-7"></use>
                        </g>
                        <g id="Fill-18" fill="none">
                            <use fill="black" fill-opacity="1" filter="url(#filter-10)" xlink:href="#path-9"></use>
                            <use fill="#55585A" fill-rule="evenodd" xlink:href="#path-9"></use>
                        </g>
                        <g id="Fill-22" fill="none">
                            <use fill="black" fill-opacity="1" filter="url(#filter-12)" xlink:href="#path-11"></use>
                            <use fill="#55585A" fill-rule="evenodd" xlink:href="#path-11"></use>
                        </g>
                        <g id="Fill-26" fill="none">
                            <use fill="black" fill-opacity="1" filter="url(#filter-14)" xlink:href="#path-13"></use>
                            <use fill="#55585A" fill-rule="evenodd" xlink:href="#path-13"></use>
                        </g>
                    </g>
                </g>
            </g>
        </g>
    </g>
</svg>