<?xml version="1.0" encoding="UTF-8"?>
<svg width="200px" height="200px" viewBox="0 0 200 200" version="1.1" xmlns="http://www.w3.org/2000/svg" xmlns:xlink="http://www.w3.org/1999/xlink">
    <!-- Generator: Sketch 50.2 (55047) - http://www.bohemiancoding.com/sketch -->
    <title>img-parcerias</title>
    <desc>Created with Sketch.</desc>
    <defs>
        <circle id="path-1" cx="100" cy="100" r="100"></circle>
        <filter x="-5.4%" y="-3.3%" width="110.8%" height="110.5%" filterUnits="objectBoundingBox" id="filter-3">
            <feOffset dx="0" dy="2" in="SourceAlpha" result="shadowOffsetOuter1"></feOffset>
            <feGaussianBlur stdDeviation="2" in="shadowOffsetOuter1" result="shadowBlurOuter1"></feGaussianBlur>
            <feColorMatrix values="0 0 0 0 0   0 0 0 0 0   0 0 0 0 0  0 0 0 0.15 0" type="matrix" in="shadowBlurOuter1" result="shadowMatrixOuter1"></feColorMatrix>
            <feMerge>
                <feMergeNode in="shadowMatrixOuter1"></feMergeNode>
                <feMergeNode in="SourceGraphic"></feMergeNode>
            </feMerge>
        </filter>
        <polygon id="path-4" points="7.81721763e-06 0.0392447942 125.694094 0.0392447942 125.694094 152.722952 7.81721763e-06 152.722952"></polygon>
        <polygon id="path-6" points="0.0574288 0.0563100951 1.57464996 0.0563100951 1.57464996 2.37706175 0.0574288 2.37706175"></polygon>
    </defs>
    <g id="Page-1" stroke="none" stroke-width="1" fill="none" fill-rule="evenodd">
        <g id="Home" transform="translate(-991.000000, -998.000000)">
            <g id="img-parcerias" transform="translate(991.000000, 998.000000)">
                <mask id="mask-2" fill="white">
                    <use xlink:href="#path-1"></use>
                </mask>
                <use id="Mask" fill="#D1A593" xlink:href="#path-1"></use>
                <g id="Group" filter="url(#filter-3)" mask="url(#mask-2)">
                    <g transform="translate(35.000000, 30.000000)">
                        <g id="Group-26" transform="translate(0.000000, 0.013160)">
                            <g id="Group-3" transform="translate(0.000000, 0.207786)">
                                <mask id="mask-5" fill="white">
                                    <use xlink:href="#path-4"></use>
                                </mask>
                                <g id="Clip-2"></g>
                                <path d="M18.3057888,142.417532 C19.3508501,149.047925 25.6359861,153.618254 32.2729195,152.574405 L115.378349,139.503468 C122.015282,138.459549 126.590311,132.18087 125.545389,125.550546 L107.388237,10.3446632 C106.343383,3.71454771 100.058247,-0.856058895 93.4213141,0.187790358 L10.3160235,13.2587971 C3.67909013,14.3025771 -0.896216533,20.5812566 0.148706133,27.2113721 L18.3057888,142.417532 Z" id="Fill-1" fill="#F0F0F0" mask="url(#mask-5)"></path>
                            </g>
                            <path d="M119.11276,84.9435775 L118.644829,138.88574 C117.650035,139.475299 115.325288,139.731638 114.072227,139.920377 L74.867832,145.749545 C74.867832,145.749545 18.9249147,144.748015 18.7241947,144.732501 L12.3177253,97.9119379 L10.622248,18.8723041 L12.8516613,18.3596952 L117.121715,72.8625341 L119.11276,84.9435775 Z" id="Fill-4" fill-opacity="0.5" fill="#D9D9D9"></path>
                            <path d="M6.7302352,128.381607 C6.51564853,135.089781 11.8342085,140.754106 18.5495579,140.968541 L102.634737,143.653141 C109.349809,143.867645 115.01975,138.553995 115.234406,131.84589 L118.963985,15.2803919 C119.178779,8.57201028 113.859873,2.90789348 107.14487,2.69352725 L23.0596912,0.00865083748 C16.3444112,-0.205784654 10.6745392,5.10738103 10.4598832,11.8157627 L6.7302352,128.381607 Z" id="Fill-6" fill="#FFFFFF"></path>
                            <path d="M91.3662949,3.78188434 L92.3316229,30.5357594 C92.3316229,30.5357594 91.7956763,34.119935 95.5771163,34.4131908 C99.3570309,34.7067236 118.60029,31.1005226 118.60029,31.1005226 L91.3662949,3.78188434 Z" id="Fill-8" fill="#D9D9D9"></path>
                            <path d="M91.3920939,2.28906424 L90.9704085,26.9238651 C90.9704085,26.9238651 90.4348085,30.5081792 94.2161792,30.8015735 C97.9960939,31.0952449 118.598563,31.2181158 118.598563,31.2181158 L91.3920939,2.28906424 Z" id="Fill-10" fill="#F0F0F0"></path>
                            <path d="M96.85676,67.9310026 C96.8236187,68.8642403 96.039736,69.5943322 95.105816,69.5617097 L30.501016,67.5314295 C29.5667493,67.4989456 28.8361147,66.7159374 28.868632,65.7831846 C28.9011493,64.8499469 29.6844773,64.1204091 30.618744,64.1527545 L95.223336,66.183104 C96.157256,66.215865 96.8888613,66.9981805 96.85676,67.9310026" id="Fill-12" fill="#55585A"></path>
                            <path d="M77.7847477,74.2313542 C77.7522997,75.1654923 76.9679317,75.8947531 76.0337344,75.8621999 L30.3811317,74.2736041 C29.4469344,74.241328 28.7163691,73.459151 28.7489557,72.5249436 C28.7813344,71.5922601 29.5648011,70.862376 30.4989291,70.8949984 L76.1512544,72.4836634 C77.0862144,72.5159396 77.8175424,73.2986014 77.7847477,74.2313542" id="Fill-14" fill="#55585A"></path>
                            <path d="M96.6045461,82.1530072 C96.5718901,83.0864526 95.7869675,83.8160597 94.8535328,83.7839913 L30.2488021,81.7536418 C29.3145355,81.7210886 28.5838315,80.9384268 28.6162795,80.0049813 C28.6487968,79.0720207 29.4323328,78.3419288 30.3666688,78.3739972 L94.9713995,80.4048315 C95.9053195,80.4369691 96.6369248,81.2200465 96.6045461,82.1530072" id="Fill-16" fill="#55585A"></path>
                            <path d="M71.2911819,89.4692192 C71.2582485,90.4035651 70.4741579,91.1322717 69.5394752,91.0996493 L30.1071819,89.7279132 C29.1729152,89.6954292 28.4423499,88.9136678 28.4748672,87.9797375 C28.5074539,87.0453917 29.2907819,86.316685 30.2253259,86.3493075 L69.6575499,87.7215284 C70.5919552,87.7540816 71.3233525,88.5352889 71.2911819,89.4692192" id="Fill-18" fill="#55585A"></path>
                            <path d="M78.6221627,97.2085812 C78.5892987,98.1424422 77.8051387,98.8721185 76.8707333,98.8395653 L29.9747067,97.2075422 C29.0401627,97.1750583 28.309528,96.3928813 28.342184,95.458951 C28.3744933,94.5259904 29.1580987,93.7967989 30.0923653,93.8294214 L76.9885307,95.4613059 C77.9230053,95.4939284 78.6548187,96.2756206 78.6221627,97.2085812" id="Fill-20" fill="#55585A"></path>
                            <path d="M96.1869931,105.68048 C96.1543371,106.61441 95.3702464,107.343602 94.4360491,107.311464 L29.8312491,105.280699 C28.8971211,105.248561 28.1664864,104.466384 28.1990037,103.532454 C28.2317291,102.599978 29.0149184,101.870371 29.9492544,101.902509 L94.5541237,103.932858 C95.4877664,103.965342 96.2196491,104.748004 96.1869931,105.68048" id="Fill-22" fill="#55585A"></path>
                            <path d="M96.0569931,113.003999 C96.0246144,113.936475 95.2396917,114.666567 94.3060491,114.633944 L29.7015264,112.603733 C28.7671211,112.571111 28.0363477,111.788449 28.0690037,110.855419 C28.1015211,109.922528 28.8849877,109.192436 29.8191851,109.224989 L94.4243317,111.255339 C95.3580437,111.287961 96.0896491,112.071039 96.0569931,113.003999" id="Fill-24" fill="#55585A"></path>
                        </g>
                        <g id="Group-45" transform="translate(114.500000, 98.554550) scale(-1, -1) translate(-114.500000, -98.554550) translate(99.000000, 59.554550)">
                            <g id="Group-29" transform="translate(29.258667, 0.000000)">
                                <mask id="mask-7" fill="white">
                                    <use xlink:href="#path-6"></use>
                                </mask>
                                <g id="Clip-28"></g>
                                <path d="M1.01242613,2.37706175 L0.0574288,2.00997257 L0.454015467,0.980183522 C0.462058133,0.959474151 0.471002133,0.940842644 0.483274133,0.922557447 L0.951066133,0.189556541 C1.12793547,-0.0872841105 1.62505547,0.103879312 1.57049013,0.427610412 L1.42599947,1.2849368 C1.42239413,1.30647732 1.41705547,1.32656333 1.40908213,1.3472727 L1.01242613,2.37706175 Z" id="Fill-27" fill="#2F363E" mask="url(#mask-7)"></path>
                            </g>
                            <path d="M8.70660267,70.0110962 C8.454368,69.9141292 5.27286933,68.9410658 5.25796267,68.2200473 C5.24042133,67.3601582 7.34628267,66.5591419 8.02152,64.3685891 C8.681504,62.2271432 10.4568533,65.8600101 11.6251893,63.2969658 C14.2006453,57.6460088 17.6738293,47.9963424 17.405856,47.393208 C17.194112,46.9175851 17.6695307,45.8846792 17.93272,45.2014778 C18.0386613,44.9265765 18.2733547,44.9339182 18.35392,44.9649477 C19.0372,45.2275896 19.3031627,45.6669884 18.4902987,48.4040192 C17.51256,51.6970169 15.2614453,57.5669807 14.117792,60.5361781 C11.2014933,68.1072885 9.55420267,70.3368359 8.70660267,70.0110962" id="Fill-30" fill="#231F20"></path>
                            <path d="M1.63474133,69.9134989 L6.37963733,69.5783396 C9.89220267,62.7103088 14.4652907,52.2646823 19.0368533,40.3960657 C25.540112,23.5124568 30.1068213,8.76828524 30.845984,2.807034 C30.833296,2.34277008 30.6056053,2.23956953 30.6056053,2.23956953 L29.0023413,1.62327528 C29.0023413,1.62327528 28.7642507,1.54743327 28.4430987,1.8833545 C24.9914773,6.80193395 18.486832,20.8013301 11.9836427,37.6849389 C7.12094933,50.3092744 3.339648,61.7402237 1.43180267,69.1969824 C1.25867733,69.9870553 1.63474133,69.9134989 1.63474133,69.9134989" id="Fill-32" fill="#55585A"></path>
                            <path d="M30.60564,2.23959031 L29.002376,1.62329606 C29.002376,1.62329606 28.764216,1.54738479 28.4431333,1.88337528 C26.7596507,4.28240697 24.349,8.84587958 21.567208,14.8461254 C22.503416,15.2120371 23.449816,15.5789185 24.4057147,15.9464233 C25.3616133,16.3138588 26.3100933,16.6752684 27.250184,17.0306523 C29.2121787,10.7152639 30.485416,5.71447035 30.8460187,2.80705478 C30.8332613,2.34272159 30.60564,2.23959031 30.60564,2.23959031" id="Fill-34" fill="#231F20"></path>
                            <path d="M7.59591733,49.5672763 C7.35359733,50.2546335 7.11592267,50.9338177 6.883448,51.6059373 L13.480376,54.1416923 C13.75868,53.4872347 14.038232,52.82405 14.319448,52.1517227 L7.59591733,49.5672763 Z" id="Fill-36" fill="#231F20"></path>
                            <path d="M3.33164693,75.6814604 L6.8211936,68.0027166 L2.88382293,66.489201 L0.3207776,74.5240905 C-0.151035733,76.0362902 -0.0339317333,77.4538778 0.797444267,77.7734531 C1.6288896,78.0930285 2.64739627,77.112 3.33164693,75.6814604" id="Fill-38" fill="#231F20"></path>
                            <path d="M6.37960267,69.5783465 C8.45058933,65.5294914 10.890152,60.2359268 13.480376,54.1416923 L6.883448,51.6059373 C4.48236533,58.5384511 2.60315467,64.6178635 1.43183733,69.1969893 C1.258712,69.9869929 1.63470667,69.9135058 1.63470667,69.9135058 L6.37960267,69.5783465 Z" id="Fill-40" fill="#55585A"></path>
                            <path d="M8.36381867,47.4090136 C8.10250133,48.1361965 7.8468,48.855622 7.595952,49.5672902 L14.3194827,52.1517365 C14.6110293,51.4557216 14.9039627,50.7506333 15.198144,50.0359869 L8.36381867,47.4090136 Z" id="Fill-42"></path>
                        </g>
                    </g>
                </g>
            </g>
        </g>
    </g>
</svg>