<?xml version="1.0" encoding="UTF-8"?>
<svg width="200px" height="200px" viewBox="0 0 200 200" version="1.1" xmlns="http://www.w3.org/2000/svg" xmlns:xlink="http://www.w3.org/1999/xlink">
    <!-- Generator: Sketch 50.2 (55047) - http://www.bohemiancoding.com/sketch -->
    <title>img-troca-experiencia</title>
    <desc>Created with Sketch.</desc>
    <defs></defs>
    <g id="Page-1" stroke="none" stroke-width="1" fill="none" fill-rule="evenodd">
        <g id="Home" transform="translate(-583.000000, -998.000000)">
            <g id="img-troca-experiencia" transform="translate(583.000000, 998.000000)">
                <circle id="Oval-Copy" fill="#EAE3DD" cx="100" cy="100" r="100"></circle>
                <path d="M104.687087,39.7577772 C114.063779,26.8736388 124.99402,15.872896 136.88862,7.04259042 C148.027848,11.4690738 158.182574,17.829311 166.937342,25.7204366 C166.949931,25.8110813 166.97511,25.8966902 166.9877,25.9873349 C169.178281,40.6516348 167.473656,55.0742154 162.67704,68.4619355 C161.916632,68.2781282 161.13608,68.1623044 160.335385,68.1623044 C157.611008,68.1623044 155.08051,69.2827737 152.945324,71.1938664 C139.988166,56.8896275 123.442988,45.909028 104.687087,39.7577772 Z M59.3370347,34.7093704 C58.0226864,32.6698644 55.882464,31.111279 53.2613211,30.1972781 C56.8140902,21.3997054 61.4067555,13.1359293 66.9637799,5.61241833 C77.3073485,1.99166572 88.4188793,0 99.998741,0 C109.936926,0 119.532676,1.46542282 128.589593,4.16965668 C116.412987,13.0150697 105.205776,24.1215646 95.6075084,37.1844746 C87.3034458,35.2205058 78.6493938,34.1629842 69.7410331,34.1629842 C66.2260327,34.1629842 62.7664262,34.3870781 59.3370347,34.7093704 Z M48.2255039,52.1786204 C53.5257016,50.9171482 57.6802508,47.7445833 59.5963792,44.005489 C61.119714,43.9375055 62.6380129,43.8493787 64.176455,43.8493787 C72.7700772,43.8493787 81.1345696,44.8162556 89.169216,46.6467752 C85.5585351,52.3599099 82.2298599,58.3726757 79.2562098,64.6976621 C69.9726807,84.4330299 65.0577231,104.865858 64.040488,124.588637 C62.1268774,124.377132 60.2334101,124.377132 58.4104443,124.613816 C49.9553071,108.904584 45.1007793,90.9695207 45.1007793,71.8762196 C45.1007793,65.2465662 45.715149,58.7654694 46.8280646,52.4555904 C47.2913598,52.3800531 47.7571729,52.2894084 48.2255039,52.1786204 Z M98.3218139,49.187345 C117.417633,55.2907555 134.254888,66.382143 147.403407,80.9004041 C146.8822,82.9348743 146.580051,85.1229369 146.580051,87.4117158 C146.580051,90.2368093 147.02572,92.9133462 147.80879,95.3305385 C132.527603,114.907278 109.529025,129.654669 82.2197882,135.471038 C80.1475494,132.32617 77.1965605,129.56906 73.5330035,127.577394 C74.4218252,107.534842 79.3292291,86.7369163 88.7764223,66.6540771 C91.649356,60.5431129 94.8571716,54.726744 98.3218139,49.187345 Z M43.290403,135.340107 C43.0235047,135.972102 42.8044466,136.61165 42.6206393,137.256235 C28.3843839,135.493699 14.9765205,131.172968 3.08695597,124.724604 C1.07514698,116.818371 -2.27373675e-13,108.536969 -2.27373675e-13,100.001259 C-2.27373675e-13,85.148116 3.26572749,71.0629351 9.07454268,58.390301 C16.4646045,54.2256802 24.385945,50.9070766 32.6900077,48.4798127 C34.0647858,50.0232907 35.9683247,51.2016719 38.2017097,51.9217938 C36.5021213,59.6291121 35.520137,67.6058466 35.520137,75.8243003 C35.520137,94.8672433 40.3243066,112.774609 48.7341214,128.458662 C46.377359,130.233788 44.47382,132.540192 43.290403,135.340107 Z M160.335385,106.656091 C161.780665,106.656091 163.173068,106.341353 164.482381,105.76727 C172.146895,120.947741 176.548199,138.054412 176.548199,156.221123 C176.548199,159.094056 176.397125,161.929222 176.180584,164.744243 C170.062066,171.940426 162.941421,178.260377 155.030152,183.485037 C127.310496,183.062029 102.076016,172.527099 82.7762461,155.420428 C83.3528471,154.556785 83.8740542,153.650338 84.2895091,152.670872 C85.1279727,150.684242 85.5283202,148.612003 85.5736425,146.534728 C114.572396,141.133814 138.953305,125.693999 154.783397,105.011897 C156.480467,106.064383 158.358827,106.656091 160.335385,106.656091 Z M76.0408405,161.81088 C95.3557175,177.819743 120.124385,187.475922 147.174277,187.47844 C147.627501,187.47844 148.07317,187.440672 148.528912,187.435636 C134.154172,195.429996 117.616548,200 100.001259,200 C96.7833717,200 93.608289,199.828782 90.4684569,199.534187 C83.6801752,188.246403 78.8155758,175.480606 76.0408405,161.81088 Z M56.3709383,161.566643 C60.0219058,163.110121 63.7886971,163.729526 67.3616094,163.555791 C70.2849014,176.092458 74.9707293,187.820876 81.346074,198.245018 C45.9694578,191.567524 17.1822085,166.254989 5.56206015,132.890181 C16.6584835,139.529906 29.2278833,144.263575 42.6584079,146.695874 C44.3831753,152.902519 49.3132404,158.585439 56.3709383,161.566643 Z M42.9026451,29.8246277 C36.0942201,31.4461608 31.166673,36.2150798 30.4641765,41.2987373 C24.7384522,43.4414775 19.2217144,46.0097443 13.9794287,49.0136093 C24.1517795,31.8867948 39.2844104,18.0634765 57.4057987,9.5176946 C52.8483841,15.679017 48.9330362,22.3313316 45.6975236,29.3638504 C44.7759691,29.4544951 43.841825,29.6005338 42.9026451,29.8246277 Z M200,100.001259 C200,121.579736 193.138699,141.544233 181.518551,157.88546 C181.893719,154.148884 182.107741,150.369503 182.107741,146.537246 C182.107741,129.4482 178.245269,113.278191 171.419219,98.7800733 C173.093628,95.592401 174.093238,91.6694993 174.093238,87.4117158 C174.093238,82.4413642 172.733567,77.9242361 170.525362,74.509952 C174.193955,62.3786683 175.342121,49.4945298 173.390742,36.4215483 C173.121325,34.6187257 172.791479,32.8385643 172.416311,31.0785462 C189.495285,49.0186451 200,73.2761768 200,100.001259 Z" id="Combined-Shape" fill="#231F20" fill-rule="nonzero"></path>
                <ellipse id="Oval-path" fill="#A17B4A" transform="translate(63.789848, 144.014712) scale(-1, -1) rotate(22.920000) translate(-63.789848, -144.014712) " cx="63.7898476" cy="144.014712" rx="11.8437195" ry="9.67469448"></ellipse>
                <ellipse id="Oval-path" fill="#A17B4A" cx="160.335385" cy="87.4091979" rx="5.82644056" ry="8.15550604"></ellipse>
                <ellipse id="Oval-path" fill="#A17B4A" cx="46.5162036" cy="42.3829094" rx="6.54127443" ry="4.88959005"></ellipse>
            </g>
        </g>
    </g>
</svg>