<?xml version="1.0" encoding="UTF-8"?>
<svg width="60px" height="60px" viewBox="0 0 60 60" version="1.1" xmlns="http://www.w3.org/2000/svg" xmlns:xlink="http://www.w3.org/1999/xlink">
    <!-- Generator: Sketch 50.2 (55047) - http://www.bohemiancoding.com/sketch -->
    <title>img-post</title>
    <desc>Created with Sketch.</desc>
    <defs></defs>
    <g id="Page-1" stroke="none" stroke-width="1" fill="none" fill-rule="evenodd">
        <g id="Perfil-premium-mobile" transform="translate(-415.000000, -758.000000)">
            <g id="Group-7" transform="translate(395.000000, 10.000000)">
                <g id="img-post" transform="translate(20.000000, 748.000000)">
                    <circle id="Oval" fill="#DFCBC4" cx="30" cy="30" r="30"></circle>
                    <g id="noun_Pen_1485302" transform="translate(16.000000, 15.000000)" fill="#FFFFFF" fill-rule="nonzero">
                        <path d="M4.71467698,24.3221852 L11.3111876,25.0643108 C13.3752756,25.2977424 15.4403457,24.6390505 17.0025509,23.2429527 C19.3050978,21.2535062 21.3860176,19.0192512 23.1899137,16.6056698 C26.8630286,11.2927888 27.5041266,7.71354067 24.3801183,4.57685892 C21.3591367,1.54362181 17.8933462,2.2368799 12.4151921,5.76099531 C9.96184284,7.54997813 7.73615441,9.6341707 5.77261353,11.984784 C4.39680309,13.5455956 3.74380112,15.6184837 3.97545702,17.6901008 L4.71467698,24.3221852 Z M3.1241109,25.9189913 L3.04605813,25.2187227 L2.2288206,17.886685 C1.94172188,15.3192628 2.75113151,12.7498746 4.44117123,10.8330543 C6.48169562,8.3897736 8.81281695,6.20685091 11.4245358,4.30422429 C17.5715577,0.347840262 21.8094903,-0.499868527 25.622912,3.32902343 C29.5276906,7.24964289 28.7338977,11.6813863 24.614809,17.6382881 C22.715763,20.1802252 20.5478118,22.5079246 18.1600608,24.5708253 C16.2361545,26.2903698 13.6747813,27.1074041 11.1152325,26.8180144 L3.1241109,25.9189913 Z M1.87781617,29.2330501 C1.59108142,29.6262242 1.04119421,29.7115673 0.649608696,29.4236694 C0.258023186,29.1357714 0.173024847,28.5836534 0.459759592,28.1904793 C5.68154408,21.0303063 12.4663417,13.762449 16.9715902,10.802819 C17.3777262,10.5360163 17.9223769,10.650304 18.1881015,11.0580875 C18.4538262,11.4658711 18.3400003,12.0127313 17.9338643,12.279534 C13.6416847,15.0991927 6.98567653,22.2290912 1.87781617,29.2330501 Z M19.7859278,20.39445 C20.2646149,20.4748665 20.5877404,20.9296838 20.5076488,21.4103129 C20.4275572,21.890942 19.9745775,22.2153783 19.4958904,22.1349618 L14.9789207,21.3761382 C14.5002336,21.2957217 14.1771081,20.8409044 14.2571997,20.3602753 C14.3372913,19.8796463 14.790271,19.5552099 15.2689581,19.6356265 L19.7859278,20.39445 Z M9.90637212,6.22878589 C9.8290618,5.74769792 10.1548125,5.29477243 10.6339567,5.21714848 C11.1131009,5.13952453 11.5641964,5.46659674 11.6415067,5.9476847 L12.3972642,10.6506259 C12.4745746,11.1317138 12.1488239,11.5846393 11.6696797,11.6622633 C11.1905355,11.7398872 10.73944,11.412815 10.6621297,10.9317271 L9.90637212,6.22878589 Z" id="Combined-Shape"></path>
                    </g>
                </g>
            </g>
        </g>
    </g>
</svg>