<svg xmlns="http://www.w3.org/2000/svg" width="150" height="32" viewBox="0 0 150 32">
    <g fill="#55585A" fill-rule="evenodd">
        <path d="M33.001 9.324c.018.01.035.023.05.035a.615.615 0 0 0-.239-.062c-.754-.035-.732 1.339.075 1.168a2.567 2.567 0 0 1-.068.26c-.12.372-.335.716-.664.91-1.37.813-4.31-.99-5.622-1.47-1.996-.731-4.094-1.346-6.24-1.172-1.184.096-2.439.494-3.133 1.474.001-.466.325-.855.522-1.276.359-.765.296-1.678.014-2.476a6.884 6.884 0 0 0-.539-1.141 16.855 16.855 0 0 0-.685-1.066c-.476.696-.921 1.41-1.203 2.207-.282.798-.345 1.711.013 2.476.198.42.522.81.522 1.276-.694-.98-1.948-1.378-3.133-1.474-2.146-.174-4.243.44-6.24 1.172-1.311.48-4.25 2.283-5.622 1.47-.404-.24-.636-.704-.732-1.17.807.17.83-1.203.075-1.168A.589.589 0 0 0 0 9.325a.947.947 0 0 1 .232-.198L15.256 0a6.89 6.89 0 0 0 .58 1.26c.212.369.45.724.69 1.074.48-.7.93-1.42 1.214-2.225l.025-.073 15.236 9.288zm-3.758 3.219l-.073.016a.941.941 0 0 0-.77.931c0 .451.31.829.726.923l-1.923 6.692a2.19 2.19 0 0 0 .013-.107c.058-.532.009-1.085-.22-1.567-.314-.667-.935-1.134-1.59-1.457-1.632-.802-3.449-1.159-5.048-2.036a6.015 6.015 0 0 1-.116-.066c-.811-.463-1.534-1.07-2.196-1.73a17.324 17.324 0 0 1-.374-.385c.986-3.139 4.352-3.446 7.262-2.621 1.454.411 2.851 1.013 4.309 1.407zm-2.397 9.806l-1.335 4.644v.587c0 .589.332 1.1.818 1.35-.947 1.83-2.935 3.063-4.976 3.07-.338 0-.694-.035-.976-.225-.567-.383-.61-1.196-.597-1.886.015-.691-.029-1.503-.595-1.886-.08-.055-.17-.1-.225-.18-.188-.278.187-.589.495-.712a3.304 3.304 0 0 1-.776-.34c-.088-.053-.182-.122-.201-.225-.022-.115.059-.222.12-.321.779-1.27-1.104-1.158-1.787-1.672.719-.91 1.427-1.918 1.516-3.08.06-.78-.167-1.549-.37-2.304-.413-1.532-.738-3.138-.459-4.7l.011-.056c.077.142.158.28.242.417.518.846 1.18 1.612 1.992 2.176.106.074.213.143.324.21.941.563 2.012.806 2.998 1.262 1.22.564 2.968 1.352 3.286 2.84a2.25 2.25 0 0 1-.14 1.316c-.17.414-.453.831-.798 1.116.37-.24.724-.515 1.035-.831.16-.164.292-.358.398-.57zm-2.994-1.26c-.464.118-.906-.068-.906-.068-2.055 1.296-2.792.626-2.866.551.976 1.127 3.71-.446 3.772-.482zm-8.386-6.62c.28 1.562-.046 3.168-.458 4.7-.204.755-.43 1.524-.37 2.305.089 1.161.797 2.17 1.516 3.08-.684.513-2.566.401-1.787 1.67.06.1.142.207.12.322-.02.103-.113.172-.202.226-.243.146-.504.26-.775.339.308.123.682.434.494.711-.054.08-.144.126-.225.18-.566.384-.61 1.196-.595 1.887.015.69-.03 1.503-.596 1.886-.282.19-.638.226-.977.225-1.998-.007-3.946-1.189-4.915-2.958.64-.17 1.11-.76 1.11-1.462v-.587l-1.209-3.84c.106.16.229.308.37.432.332.294.704.543 1.09.756a2.92 2.92 0 0 1-.874-1.057 2.249 2.249 0 0 1-.23-1.302c.216-1.507 1.906-2.417 3.084-3.066.952-.525 2.003-.843 2.904-1.472.105-.073.208-.15.308-.231.773-.62 1.379-1.433 1.838-2.312.118-.225.227-.456.327-.69.02.085.037.17.052.257zm-6.34 6.681c.064.037 2.798 1.61 3.772.482-.073.075-.81.745-2.865-.55 0 0-.442.186-.906.068zm6.125-7.522c-.165.206-.332.409-.505.607-.615.706-1.295 1.362-2.072 1.882-.037.024-.074.05-.112.073-1.534.99-3.323 1.473-4.895 2.39-.63.368-1.219.878-1.487 1.565-.144.37-.187.771-.161 1.17L3.846 14.41a.943.943 0 0 0 .72-.92.941.941 0 0 0-.772-.932l-.072-.016c1.457-.394 2.855-.995 4.308-1.407 2.87-.813 6.183-.526 7.22 2.492zm16.488 15.065h-4.293c-.681 0-1.234-.63-1.234-1.406v-.265c0-.011.008-.02.018-.02h6.749c.01 0 .017.009.017.02v.238c0 .791-.563 1.433-1.257 1.433zm-25.886 0H1.561c-.681 0-1.234-.63-1.234-1.406v-.265c0-.011.008-.02.018-.02h6.749c.01 0 .017.009.017.02v.238c0 .791-.563 1.433-1.258 1.433zM29.634 13.52a.285.285 0 0 1-.283.287.285.285 0 0 1-.282-.287c0-.158.126-.287.282-.287.156 0 .283.129.283.287zm-25.707 0a.285.285 0 0 1-.282.287.285.285 0 0 1-.283-.287c0-.158.127-.287.283-.287.156 0 .282.129.282.287zM54.295 10.88v2.363h-.207v-.313c0-.28-.097-.52-.29-.722a.961.961 0 0 0-.725-.303h-4.37v6.463h3.5c.276-.014.51-.119.704-.314a.973.973 0 0 0 .29-.711v-.314h.207v3.305h-.207v-.314a.992.992 0 0 0-.28-.711.994.994 0 0 0-.693-.314h-3.52v5.375c0 .363.13.673.393.93.262.259.573.388.932.388h.269v.209h-4.535v-.21h.269c.359 0 .666-.128.921-.386.256-.258.39-.568.404-.93V12.657c0-.335-.134-.617-.404-.847a1.379 1.379 0 0 0-.921-.345h-.249l-.02-.21h6.067c.428 0 .894-.041 1.398-.125.504-.084.86-.167 1.067-.251zm2.46 14.808c.332 0 .611-.108.84-.324.227-.216.348-.478.362-.785v-9.934a.996.996 0 0 0-.352-.774 1.232 1.232 0 0 0-.85-.314h-.29v-.209h6.048c.566 0 1.063-.042 1.49-.126.429-.083.705-.153.829-.209v2.385l-.228-.021v-.314a1.07 1.07 0 0 0-.29-.753.97.97 0 0 0-.745-.314H59.26v5.313h3.542c.276 0 .486-.084.631-.251a.924.924 0 0 0 .218-.628v-.272h.227v2.929h-.227v-.272c0-.39-.145-.656-.435-.795a1.445 1.445 0 0 0-.352-.084H59.26v5.313h3.252c.635 0 1.17-.112 1.605-.335.434-.223.766-.488.994-.795.227-.307.459-.71.693-1.213h.207l-1.139 2.991h-8.407v-.21h.29zm28.037 0h.31v.209h-4.307v-.188h.31a.75.75 0 0 0 .55-.24.663.663 0 0 0 .196-.576l-1.077-8.617-3.914 7.78c-.386.851-.628 1.562-.725 2.134h-.207l-4.99-9.726-.932 8.43a.663.663 0 0 0 .196.564.758.758 0 0 0 .57.25h.29v.189H67.23v-.21h.31c.497 0 .884-.18 1.16-.543.138-.181.221-.397.249-.648l1.615-11.44h.207l5.467 10.624 5.28-10.625h.187l1.678 11.483c.055.348.214.627.476.836.262.21.573.314.932.314zm2.316 0c.372 0 .697-.112.973-.335.276-.223.414-.488.414-.795v-9.871c0-.307-.138-.572-.414-.795a1.532 1.532 0 0 0-.994-.335h-.27v-.209h4.68v.21h-.268c-.373 0-.694.104-.963.313-.27.209-.418.467-.446.774v9.934c.014.307.16.569.435.785.276.216.6.324.974.324h.269l.02.209h-4.7v-.21h.29zm17.077-14.222c-.497 0-.876.216-1.139.648-.11.195-.172.418-.186.67v13.113c0 1.171-.362 2.161-1.087 2.97-.725.809-1.619 1.213-2.682 1.213v-.188c.677-.237 1.25-.75 1.719-1.537.47-.788.704-1.628.704-2.52V12.782a1.353 1.353 0 0 0-.404-.93 1.25 1.25 0 0 0-.921-.387h-.27v-.21h4.536v.21h-.27zm15.404 2.091h-.31c-.373 0-.656.147-.85.44a.92.92 0 0 0-.144.439v7.048c0 1.45-.46 2.597-1.378 3.44-.918.844-2.177 1.266-3.779 1.266-1.601 0-2.865-.418-3.79-1.255-.925-.837-1.387-1.98-1.387-3.43v-7.049a.827.827 0 0 0-.29-.637 1.014 1.014 0 0 0-.704-.262h-.31v-.209h3.934v.21h-.31c-.277 0-.511.086-.705.26a.827.827 0 0 0-.29.638v6.798c0 1.352.342 2.419 1.025 3.2.684.78 1.65 1.171 2.9 1.171s2.25-.37 3.002-1.108c.753-.74 1.129-1.75 1.129-3.033v-7.028a.898.898 0 0 0-.3-.648 1 1 0 0 0-.694-.25h-.31v-.21h3.561v.21zm6.168.44h-1.098v10.561c.014.433.208.76.58.983.18.098.38.147.6.147h.27l.02.209h-4.245v-.21h.29c.318 0 .59-.107.818-.323.228-.216.342-.478.342-.785v-9.934c0-.307-.114-.565-.342-.774-.227-.21-.5-.314-.818-.314h-.29v-.209h5.198c1.298 0 2.323.3 3.076.9.752.599 1.128 1.387 1.128 2.363s-.303 1.791-.911 2.447c-.607.655-1.38 1.032-2.32 1.13.442.194.974.738 1.595 1.63-.014 0 .225.307.715.92.49.614.883 1.092 1.18 1.434.297.341.542.603.735.784.511.488 1.098.732 1.76.732v.209h-.641c-1.091 0-1.947-.216-2.568-.648a6.093 6.093 0 0 1-1.284-1.193c-.083-.111-.432-.603-1.046-1.474a242.56 242.56 0 0 0-.984-1.39c-.745-.935-1.442-1.402-2.091-1.402v-.21c1.615 0 2.588-.083 2.92-.25.455-.237.766-.488.931-.753a3.43 3.43 0 0 0 .518-1.84c0-.851-.248-1.507-.745-1.967-.497-.46-1.167-.71-2.01-.753-.372-.014-.8-.02-1.283-.02zm9.833 11.69c.373 0 .697-.11.973-.334.277-.223.415-.488.415-.795v-9.871c0-.307-.138-.572-.415-.795a1.532 1.532 0 0 0-.994-.335h-.269v-.209h4.68v.21h-.269c-.373 0-.694.104-.963.313-.269.209-.417.467-.445.774v9.934c.014.307.159.569.435.785.276.216.6.324.973.324h.27l.02.209h-4.7v-.21h.29zm7.162-.48c-.041-.168-.062-.51-.062-1.025 0-.516.09-1.039.269-1.569h.249a3.44 3.44 0 0 0-.021.377c0 .753.245 1.37.735 1.85.49.482 1.17.722 2.04.722.911 0 1.622-.212 2.133-.638.51-.425.766-.976.766-1.652 0-.676-.248-1.237-.745-1.684l-4.142-3.22c-.663-.572-.994-1.339-.994-2.301 0-.544.148-1.046.445-1.506.297-.46.711-.826 1.243-1.098.531-.272 1.156-.408 1.874-.408a8.65 8.65 0 0 1 1.905.188h.683l.042 2.28h-.228c0-.585-.2-1.039-.6-1.36-.401-.32-.974-.48-1.72-.48-.745 0-1.36.191-1.843.575-.483.383-.724.878-.724 1.485 0 .606.269 1.133.807 1.579l4.183 3.263c.635.53.953 1.268.953 2.217 0 .948-.355 1.75-1.066 2.405-.712.655-1.578.983-2.6.983a8.425 8.425 0 0 1-2.029-.251c-.676-.167-1.194-.412-1.553-.732z"/>
    </g>
</svg>
