<?xml version="1.0" encoding="UTF-8"?>
<svg width="150px" height="32px" viewBox="0 0 150 32" version="1.1" xmlns="http://www.w3.org/2000/svg" xmlns:xlink="http://www.w3.org/1999/xlink">
    <!-- Generator: Sketch 50.2 (55047) - http://www.bohemiancoding.com/sketch -->
    <title>logo-white</title>
    <desc>Created with Sketch.</desc>
    <defs></defs>
    <g id="Page-1" stroke="none" stroke-width="1" fill="none" fill-rule="evenodd">
        <g id="Home" transform="translate(-100.000000, -2872.000000)" fill="#EAE3DD">
            <g id="logo-white" transform="translate(100.000000, 2872.000000)">
                <path d="M33.0014916,9.32420005 C33.018683,9.33451713 33.0355046,9.34652245 33.0508475,9.35852778 C32.9765364,9.32288697 32.8961252,9.30056456 32.8123867,9.2968129 C32.0578155,9.26248516 32.0803676,10.6355945 32.8872523,10.4654565 C32.8693215,10.5523075 32.8462148,10.6399089 32.8188566,10.7256344 C32.698517,11.0970492 32.4844569,11.4405141 32.1552332,11.6356007 C30.784361,12.4483989 27.8451934,10.6447861 26.5331046,10.164573 C24.5366889,9.43393624 22.4391584,8.81866322 20.2939357,8.99255288 C19.1086563,9.0885955 17.8542417,9.48720988 17.1603024,10.466582 C17.1610418,10.0010004 17.4852745,9.61157757 17.6821433,9.19120353 C18.0409436,8.42623909 17.9780935,7.51252113 17.6960073,6.71547995 C17.5547794,6.31630282 17.3680775,5.93888534 17.1573448,5.57366077 C16.9462423,5.20899896 16.7105543,4.85634247 16.4724633,4.50837556 C15.9957266,5.20393421 15.5507847,5.91787602 15.2686985,6.71547995 C14.9866124,7.51252113 14.9235774,8.42623909 15.2823776,9.19120353 C15.479801,9.61157757 15.803664,10.0010004 15.8042185,10.466582 C15.1102792,9.48720988 13.8560495,9.0885955 12.6705852,8.99255288 C10.5253626,8.81866322 8.42783208,9.43393624 6.43141634,10.164573 C5.11988211,10.6447861 2.18034478,12.4483989 0.809287789,11.6356007 C0.404643894,11.3953066 0.173207551,10.9308505 0.0772686833,10.4654565 C0.884153379,10.6355945 0.906705483,9.26248516 0.152319127,9.2968129 C0.10000564,9.29925148 0.0493558336,9.30900581 0,9.3247628 C0.0648835116,9.24804125 0.142706755,9.18088646 0.231990903,9.1266749 L15.2561285,0 C15.2674045,0.0362035651 15.2799746,0.0725947134 15.2925446,0.108798278 C15.4346968,0.510976742 15.6226926,0.8919583 15.8358285,1.26037178 C16.0482249,1.62878526 16.2855766,1.9842555 16.5260707,2.33447341 C17.0068742,1.63347484 17.4555132,0.913155206 17.7398175,0.108798278 C17.7483208,0.0846000407 17.7566392,0.0604018029 17.7649576,0.0362035651 L33.0014916,9.32420005 Z M29.2425181,12.542622 L29.1704253,12.5589417 C28.7325078,12.6356632 28.3992173,13.0233978 28.3992173,13.4901049 C28.3992173,13.9412426 28.7105102,14.3186601 29.1264302,14.4128268 L27.2032164,21.1046713 C27.2085771,21.0684677 27.2128287,21.0333897 27.2163409,20.9977489 C27.2740152,20.4663255 27.2246593,19.9125798 26.9967352,19.4308661 C26.6824846,18.7641952 26.0608229,18.2967378 25.4055179,17.9742822 C23.7743723,17.1718011 21.9570794,16.815393 20.3580983,15.9375034 C20.319464,15.9163065 20.2808296,15.8945468 20.2421953,15.8722244 C19.4305044,15.4090814 18.7080977,14.8028124 18.0457683,14.1415815 C17.9191437,14.0155255 17.7947375,13.8868434 17.6721797,13.7570358 C18.6581873,10.6182055 22.0238115,10.3113193 24.934142,11.1357477 C26.3880133,11.5474929 27.7851346,12.1494475 29.2425181,12.542622 Z M26.8455622,22.3491548 L25.5109213,26.9933406 L25.5109213,27.0120989 L25.5109213,27.5797258 C25.5109213,28.1689248 25.8434724,28.6799015 26.3285275,28.9293872 C25.3817088,30.7607624 23.3936115,31.9931843 21.3532006,31.9999373 C21.0145494,32.0005 20.6587068,31.9648592 20.3766206,31.7746498 C19.8102301,31.3917924 19.766235,30.5789942 19.7804687,29.8886879 C19.7952569,29.1980064 19.7512619,28.3859586 19.1854259,28.0025384 C19.1050147,27.9481393 19.0146214,27.9027442 18.9604594,27.8224585 C18.7724636,27.5452105 19.1467915,27.2343851 19.454942,27.1111429 C19.1835773,27.0319828 18.9223796,26.9177446 18.6794824,26.7718048 C18.5909376,26.7179684 18.4968473,26.6491254 18.4778074,26.5459546 C18.4558099,26.4305909 18.5367756,26.3242312 18.5979621,26.2246245 C19.3769339,24.9554363 17.494203,25.0670483 16.8109851,24.5532578 C17.5298796,23.6436667 18.2380527,22.6354068 18.327152,21.4735162 C18.3868596,20.6933575 18.1600446,19.9240787 17.9565211,19.1692437 C17.5441133,17.637439 17.2185867,16.0309761 17.4984546,14.4682202 C17.5019668,14.4496494 17.5049244,14.4314539 17.5089912,14.4132583 C17.5858902,14.554696 17.6668559,14.6935076 17.7505945,14.8300682 C18.2694777,15.6755059 18.9301435,16.4423462 19.743498,17.006409 C19.8488644,17.0799416 19.956449,17.1493474 20.0666216,17.2151891 C21.0080795,17.7786892 22.0791196,18.0219846 23.0651271,18.4778119 C24.2849741,19.0418747 26.0327622,19.8304746 26.3510796,21.3178221 C26.444985,21.7556414 26.3821349,22.2200975 26.211885,22.6337186 C26.0416351,23.0479023 25.7578853,23.4650875 25.4127642,23.750214 C25.7833951,23.5091695 26.1373891,23.2351104 26.4481276,22.9186575 C26.6087651,22.7548973 26.7396412,22.5605611 26.8455622,22.3491548 Z M23.8524174,21.0895333 C23.3882507,21.2073356 22.9460816,21.0206903 22.9460816,21.0206903 C20.8914371,22.3165153 20.1535027,21.6468431 20.0803008,21.5719974 C21.0555868,22.6993727 23.7893824,21.1262996 23.8524174,21.0895333 Z M15.4662512,14.4682764 C15.7459343,16.0310324 15.4204076,17.6374953 15.0079999,19.1693 C14.8044764,19.9241349 14.5778462,20.6934138 14.637369,21.4735725 C14.7266531,22.6354631 15.4346413,23.643723 16.1535358,24.5533141 C15.470318,25.0671046 13.5875871,24.955305 14.3665589,26.2246808 C14.4277453,26.3242875 14.5087111,26.4306472 14.487453,26.5460109 C14.4676737,26.6491816 14.3735833,26.7180247 14.2850386,26.7718611 C14.0421413,26.9178008 13.7809436,27.032039 13.5097638,27.1110116 C13.8179143,27.2344413 14.1922422,27.5452668 14.0040616,27.8223272 C13.9498995,27.9028004 13.8595063,27.948008 13.7792799,28.0024071 C13.2132591,28.3858273 13.169264,29.1978751 13.1842371,29.8887442 C13.1990254,30.5790505 13.1544757,31.3918487 12.5879004,31.7747061 C12.3058142,31.9647279 11.9499716,32.0005563 11.6113203,31.9999935 C9.6132409,31.9932405 7.66488702,30.8114661 6.69625568,29.042181 C7.33529357,28.8718554 7.80648465,28.281531 7.80648465,27.5795945 L7.80648465,27.0121552 L7.80648465,26.9933969 L6.59735916,23.1522549 C6.7032801,23.3133889 6.82583785,23.4608293 6.96688092,23.5853846 C7.29887747,23.8793275 7.67098718,24.1275002 8.05714574,24.3413451 C7.69298472,24.0815423 7.38169175,23.6855541 7.18297444,23.2839383 C6.98536625,22.8834481 6.8901668,22.4251823 6.95394119,21.9821107 C7.1692953,20.4752545 8.85866969,19.5654758 10.0369247,18.9156875 C10.9889192,18.3908296 12.0403649,18.0726884 12.9407853,17.4440969 C13.0461517,17.3705643 13.149115,17.2938428 13.2489358,17.2128068 C14.0219923,16.5926566 14.6277566,15.7804212 15.0871171,14.9006558 C15.2048687,14.6759311 15.3144867,14.4453913 15.4144923,14.2116626 C15.4335322,14.2955123 15.4507236,14.3814254 15.4662512,14.4682764 Z M9.12652214,21.1499914 C9.18955712,21.1867577 11.9237224,22.7598308 12.8984539,21.6322679 C12.825252,21.7073012 12.088057,22.3769734 10.0332276,21.0811484 C10.0332276,21.0811484 9.59124336,21.2676061 9.12652214,21.1499914 Z M15.2507862,13.6278097 C15.0864516,13.8337761 14.9187897,14.0365536 14.7455821,14.2352043 C14.1309449,14.94108 13.4514241,15.5974338 12.6735614,16.1168517 C12.6365907,16.1414251 12.5998049,16.1663737 12.5622797,16.1898216 C11.0276275,17.1791356 9.2393566,17.663288 7.66736405,18.5792569 C7.03609,18.9476704 6.44807162,19.4578968 6.17966462,20.1450142 C6.03566389,20.5147408 5.99277792,20.9161689 6.01902709,21.3142205 L3.84589159,14.4109698 C4.25829932,14.3136141 4.56534067,13.9380724 4.56534067,13.4901236 C4.56534067,13.023229 4.23205015,12.635682 3.79394781,12.5589605 L3.72203987,12.5426407 C5.17942336,12.1494662 6.57654467,11.5475116 8.0302311,11.1357664 C10.9002636,10.3229682 14.2130197,10.609783 15.2507862,13.6278097 Z M31.7385738,28.6925446 L27.4464648,28.6925446 C26.7649107,28.6925446 26.2123841,28.0632029 26.2123841,27.2866082 L26.2123841,27.0215531 C26.2123841,27.0106733 26.220148,27.0018569 26.2297603,27.0018569 L32.9787547,27.0018569 C32.988367,27.0018569 32.9961309,27.0106733 32.9961309,27.0215531 L32.9961309,27.2597838 C32.9961309,28.0510099 32.4330677,28.6925446 31.7385738,28.6925446 Z M5.85341701,28.6925446 L1.56130802,28.6925446 C0.87975387,28.6925446 0.327227328,28.0632029 0.327227328,27.2866082 L0.327227328,27.0215531 C0.327227328,27.0106733 0.334991167,27.0018569 0.344603539,27.0018569 L7.09359787,27.0018569 C7.10321024,27.0018569 7.11097408,27.0106733 7.11097408,27.0215531 L7.11097408,27.2597838 C7.11097408,28.0510099 6.5479109,28.6925446 5.85341701,28.6925446 Z M29.6340559,13.520831 C29.6340559,13.6793389 29.5074313,13.8076458 29.3514151,13.8076458 C29.1952141,13.8076458 29.0687744,13.6793389 29.0687744,13.520831 C29.0687744,13.3625108 29.1952141,13.2340163 29.3514151,13.2340163 C29.5074313,13.2340163 29.6340559,13.3625108 29.6340559,13.520831 Z M3.92735644,13.520831 C3.92735644,13.6793389 3.80073192,13.8076458 3.64471573,13.8076458 C3.48851468,13.8076458 3.36207502,13.6793389 3.36207502,13.520831 C3.36207502,13.3625108 3.48851468,13.2340163 3.64471573,13.2340163 C3.80073192,13.2340163 3.92735644,13.3625108 3.92735644,13.520831 Z" id="Combined-Shape-Copy"></path>
                <path d="M54.2947001,10.88 L54.2947001,13.2433987 L54.087613,13.2433987 L54.087613,12.9296732 C54.087613,12.6508047 53.9909733,12.4102842 53.797691,12.2081046 C53.6044088,12.0059249 53.3628096,11.9048366 53.0728862,11.9048366 L48.7033486,11.9048366 L48.7033486,18.3675817 L52.2031204,18.3675817 C52.4792379,18.3536383 52.7139343,18.2490642 52.9072165,18.0538562 C53.1004988,17.8586483 53.1971385,17.6216136 53.1971385,17.3427451 L53.1971385,17.0290196 L53.4042256,17.0290196 L53.4042256,20.3335948 L53.1971385,20.3335948 L53.1971385,20.0198693 C53.1971385,19.7410008 53.1039502,19.5039661 52.9175709,19.3087582 C52.7311916,19.1135502 52.4999466,19.0089761 52.2238291,18.9950327 L48.7033486,18.9950327 L48.7033486,24.3701961 C48.7033486,24.7327251 48.8345024,25.0429617 49.096814,25.300915 C49.3591257,25.5588684 49.6697532,25.6878431 50.028706,25.6878431 L50.2979192,25.6878431 L50.2979192,25.8969935 L45.7627119,25.8969935 L45.7627119,25.6878431 L46.0319251,25.6878431 C46.3908778,25.6878431 46.698054,25.5588684 46.9534626,25.300915 C47.2088713,25.0429617 47.3434766,24.7327251 47.3572825,24.3701961 L47.3572825,12.6577778 C47.3572825,12.3231356 47.2226772,12.0407855 46.9534626,11.810719 C46.6842481,11.5806524 46.377072,11.4656209 46.0319251,11.4656209 L45.7834206,11.4656209 L45.7627119,11.2564706 L51.8303637,11.2564706 C52.2583458,11.2564706 52.7242871,11.2146409 53.2282015,11.1309804 C53.732116,11.0473198 54.0876119,10.9636605 54.2947001,10.88 Z M56.755585,25.6878431 C57.086926,25.6878431 57.3664908,25.5797832 57.5942878,25.3636601 C57.8220847,25.147537 57.9428843,24.8861018 57.9566902,24.5793464 L57.9566902,14.6447059 C57.9566902,14.3379505 57.839342,14.080001 57.6046421,13.8708497 C57.3699422,13.6616983 57.086926,13.5571242 56.755585,13.5571242 L56.4656631,13.5571242 L56.4656631,13.3479739 L62.5126062,13.3479739 C63.0786471,13.3479739 63.5756511,13.3061442 64.0036333,13.2224837 C64.4316154,13.1388231 64.7077288,13.069107 64.8319816,13.0133333 L64.8319816,15.3976471 L64.6041858,15.376732 L64.6041858,15.0630065 C64.6041858,14.7701946 64.5075462,14.5192167 64.3142639,14.3100654 C64.1209816,14.100914 63.8724796,13.9963399 63.5687504,13.9963399 L59.2613389,13.9963399 L59.2613389,19.3087582 L62.8025281,19.3087582 C63.0786456,19.3087582 63.2891821,19.2250989 63.4341438,19.0577778 C63.5791054,18.8904567 63.6515852,18.6813084 63.6515852,18.4303268 L63.6515852,18.1584314 L63.879381,18.1584314 L63.879381,21.0865359 L63.6515852,21.0865359 L63.6515852,20.8146405 C63.6515852,20.4242246 63.5066257,20.1593035 63.2167023,20.0198693 C63.1062553,19.978039 62.9889071,19.9501526 62.8646543,19.9362092 L59.2613389,19.9362092 L59.2613389,25.2486275 L62.5126062,25.2486275 C63.1476765,25.2486275 63.6826461,25.1370817 64.1175312,24.9139869 C64.5524162,24.6908921 64.8837523,24.425971 65.1115492,24.1192157 C65.3393461,23.8124603 65.5705911,23.4081071 65.805291,22.9061438 L66.0123781,22.9061438 L64.873399,25.8969935 L56.4656631,25.8969935 L56.4656631,25.6878431 L56.755585,25.6878431 Z M84.7917259,25.6878431 L85.1023565,25.6878431 L85.1023565,25.8969935 L80.794945,25.8969935 L80.794945,25.7087582 L81.1055757,25.7087582 C81.3126638,25.7087582 81.4955889,25.6285847 81.6543564,25.4682353 C81.813124,25.3078859 81.8787009,25.1161667 81.8510892,24.8930719 L80.7742363,16.2760784 L76.8602903,24.0564706 C76.4737258,24.9070195 76.2321266,25.6181235 76.1354854,26.1898039 L75.9283984,26.1898039 L70.9375994,16.4643137 L70.0057075,24.8930719 C69.9780958,25.1022233 70.0436727,25.2904567 70.2024403,25.4577778 C70.3612078,25.6250989 70.5510358,25.7087582 70.7719298,25.7087582 L71.0618517,25.7087582 L71.0618517,25.8969935 L67.2307405,25.8969935 L67.2307405,25.6878431 L67.5413711,25.6878431 C68.0383826,25.6878431 68.4249413,25.5065813 68.7010588,25.1440523 C68.8391176,24.9627878 68.9219516,24.7466679 68.9495633,24.4956863 L70.5648427,13.0551634 L70.7719298,13.0551634 L76.239029,23.68 L81.5197498,13.0551634 L81.7061282,13.0551634 L83.3835337,24.5375163 C83.4387572,24.886102 83.5975223,25.1649663 83.859834,25.3741176 C84.1221456,25.583269 84.4327731,25.6878431 84.7917259,25.6878431 Z M87.1076499,25.6878431 C87.4804085,25.6878431 87.8048417,25.5762974 88.0809592,25.3532026 C88.3570767,25.1301078 88.4951334,24.8651867 88.4951334,24.5584314 L88.4951334,14.6865359 C88.4951334,14.3797806 88.3570767,14.1148595 88.0809592,13.8917647 C87.8048417,13.6686699 87.4735057,13.5571242 87.0869412,13.5571242 L86.817728,13.5571242 L86.817728,13.3479739 L91.4978963,13.3479739 L91.4978963,13.5571242 L91.228683,13.5571242 C90.8559244,13.5571242 90.5349426,13.6616983 90.2657281,13.8708497 C89.9965135,14.080001 89.8481026,14.3379505 89.8204908,14.6447059 L89.8204908,24.5793464 C89.8342967,24.8861018 89.9792562,25.147537 90.2553737,25.3636601 C90.5314912,25.5797832 90.8559244,25.6878431 91.228683,25.6878431 L91.4978963,25.6878431 L91.518605,25.8969935 L86.817728,25.8969935 L86.817728,25.6878431 L87.1076499,25.6878431 Z M104.185432,11.4656209 C103.688421,11.4656209 103.308765,11.6817408 103.046453,12.1139869 C102.936006,12.3091949 102.873881,12.5322863 102.860075,12.783268 L102.860075,25.8969935 C102.860075,27.0682412 102.497676,28.0582095 101.772868,28.8669281 C101.048059,29.6756467 100.154142,30.08 99.0910897,30.08 L99.0910897,29.8917647 C99.7675776,29.6547265 100.340513,29.1423133 100.809913,28.3545098 C101.279312,27.5667063 101.514009,26.7266276 101.514009,25.8342484 L101.514009,12.783268 C101.500203,12.4207389 101.365598,12.1105024 101.110189,11.852549 C100.85478,11.5945957 100.547604,11.4656209 100.188651,11.4656209 L99.9194381,11.4656209 L99.9194381,11.2564706 L104.454645,11.2564706 L104.454645,11.4656209 L104.185432,11.4656209 Z M119.58926,13.5571242 L119.27863,13.5571242 C118.905871,13.5571242 118.622855,13.7035279 118.429573,13.9963399 C118.346737,14.1218307 118.298418,14.2682345 118.284612,14.4355556 L118.284612,21.4839216 C118.284612,22.9340378 117.825573,24.0808672 116.907483,24.9244444 C115.989392,25.7680216 114.729625,26.1898039 113.128143,26.1898039 C111.526662,26.1898039 110.263443,25.7715075 109.338449,24.934902 C108.413456,24.0982965 107.950966,22.9549528 107.950966,21.5048366 L107.950966,14.4564706 C107.950966,14.2054889 107.854326,13.9928549 107.661044,13.8185621 C107.467762,13.6442693 107.233065,13.5571242 106.956948,13.5571242 L106.646317,13.5571242 L106.646317,13.3479739 L110.580972,13.3479739 L110.580972,13.5571242 L110.270341,13.5571242 C109.994224,13.5571242 109.759527,13.6442693 109.566245,13.8185621 C109.372963,13.9928549 109.276323,14.2054889 109.276323,14.4564706 L109.276323,21.2538562 C109.276323,22.6063684 109.618014,23.6730244 110.301404,24.4538562 C110.984795,25.234688 111.951192,25.625098 113.200624,25.625098 C114.450055,25.625098 115.450966,25.2556028 116.203386,24.5166013 C116.955807,23.7775998 117.332011,22.7667167 117.332011,21.4839216 L117.332011,14.4564706 C117.318205,14.1915455 117.218114,13.9754257 117.031735,13.8081046 C116.845356,13.6407835 116.614111,13.5571242 116.337993,13.5571242 L116.027362,13.5571242 L116.027362,13.3479739 L119.58926,13.3479739 L119.58926,13.5571242 Z M125.757004,13.9963399 L124.659443,13.9963399 L124.659443,24.5584314 C124.673249,24.9906775 124.866528,25.3183431 125.239287,25.5414379 C125.418763,25.6390419 125.618945,25.6878431 125.839839,25.6878431 L126.109052,25.6878431 L126.129761,25.8969935 L121.884476,25.8969935 L121.884476,25.6878431 L122.174398,25.6878431 C122.491933,25.6878431 122.764595,25.5797832 122.992392,25.3636601 C123.220189,25.147537 123.334085,24.8861018 123.334085,24.5793464 L123.334085,14.6447059 C123.334085,14.3379505 123.220189,14.080001 122.992392,13.8708497 C122.764595,13.6616983 122.491933,13.5571242 122.174398,13.5571242 L121.884476,13.5571242 L121.884476,13.3479739 L127.082362,13.3479739 C128.380114,13.3479739 129.405185,13.647753 130.157605,14.2473203 C130.910025,14.8468875 131.28623,15.6346792 131.28623,16.610719 C131.28623,17.5867587 130.982505,18.4024368 130.375046,19.0577778 C129.767588,19.7131187 128.994471,20.0895856 128.055671,20.1871895 C128.497459,20.3823975 129.028977,20.9261829 129.650242,21.8185621 C129.636436,21.8185621 129.874584,22.1253128 130.364692,22.7388235 C130.854801,23.3523342 131.248262,23.8298894 131.545089,24.1715033 C131.841915,24.5131172 132.086965,24.7745525 132.280248,24.955817 C132.791065,25.4438369 133.377806,25.6878431 134.040488,25.6878431 L134.040488,25.8969935 L133.398518,25.8969935 C132.307854,25.8969935 131.451902,25.6808736 130.830638,25.2486275 C130.361238,24.9279287 129.933263,24.530547 129.546698,24.0564706 C129.463863,23.9449232 129.11527,23.4534248 128.500908,22.5819608 C127.886547,21.7104967 127.558662,21.2468848 127.517245,21.1911111 C126.771727,20.2569016 126.074541,19.7898039 125.425665,19.7898039 L125.425665,19.5806536 C127.040952,19.5806536 128.014252,19.4969943 128.345593,19.3296732 C128.801187,19.092635 129.111814,18.8416571 129.277485,18.576732 C129.622632,18.018995 129.795203,17.4054935 129.795203,16.7362092 C129.795203,15.8856602 129.546701,15.2303291 129.049689,14.7701961 C128.552678,14.3100631 127.883103,14.0590852 127.040944,14.0172549 C126.668186,14.0033115 126.24021,13.9963399 125.757004,13.9963399 Z M135.59019,25.6878431 C135.962948,25.6878431 136.287382,25.5762974 136.563499,25.3532026 C136.839617,25.1301078 136.977673,24.8651867 136.977673,24.5584314 L136.977673,14.6865359 C136.977673,14.3797806 136.839617,14.1148595 136.563499,13.8917647 C136.287382,13.6686699 135.956046,13.5571242 135.569481,13.5571242 L135.300268,13.5571242 L135.300268,13.3479739 L139.980436,13.3479739 L139.980436,13.5571242 L139.711223,13.5571242 C139.338464,13.5571242 139.017483,13.6616983 138.748268,13.8708497 C138.479053,14.080001 138.330642,14.3379505 138.303031,14.6447059 L138.303031,24.5793464 C138.316837,24.8861018 138.461796,25.147537 138.737914,25.3636601 C139.014031,25.5797832 139.338464,25.6878431 139.711223,25.6878431 L139.980436,25.6878431 L140.001145,25.8969935 L135.300268,25.8969935 L135.300268,25.6878431 L135.59019,25.6878431 Z M142.751952,25.2067974 C142.710534,25.0394763 142.689826,24.6978675 142.689826,24.1819608 C142.689826,23.6660541 142.779562,23.1431835 142.959039,22.6133333 L143.207543,22.6133333 C143.193738,22.7388242 143.186835,22.8643131 143.186835,22.9898039 C143.186835,23.7427489 143.431885,24.3597362 143.921994,24.8407843 C144.412102,25.3218325 145.092032,25.5623529 145.961802,25.5623529 C146.872989,25.5623529 147.583981,25.3497189 148.094799,24.9244444 C148.605616,24.49917 148.861021,23.948413 148.861021,23.2721569 C148.861021,22.5959008 148.612519,22.0346863 148.115507,21.5884967 L143.973766,18.3675817 C143.311084,17.7959013 142.979748,17.0290244 142.979748,16.0669281 C142.979748,15.5231345 143.128159,15.0211788 143.424985,14.5610458 C143.721811,14.1009127 144.135981,13.7349033 144.667507,13.4630065 C145.199034,13.1911098 145.82374,13.0551634 146.541646,13.0551634 C147.259551,13.0551634 147.894612,13.1179079 148.446847,13.2433987 L149.130234,13.2433987 L149.171652,15.5231373 L148.943856,15.5231373 C148.943856,14.9375134 148.743674,14.4843589 148.343303,14.1636601 C147.942933,13.8429614 147.369998,13.6826144 146.62448,13.6826144 C145.878963,13.6826144 145.264611,13.8743336 144.781405,14.2577778 C144.2982,14.641222 144.0566,15.1362061 144.0566,15.7427451 C144.0566,16.3492841 144.325811,16.8756405 144.86424,17.3218301 L149.047399,20.5845752 C149.68247,21.1144253 150,21.8534157 150,22.8015686 C150,23.7497215 149.644504,24.5514564 148.933501,25.2067974 C148.222499,25.8621384 147.356193,26.1898039 146.334558,26.1898039 C145.658071,26.1898039 144.981593,26.1061446 144.305105,25.9388235 C143.628617,25.7715024 143.110905,25.5274962 142.751952,25.2067974 Z" id="Femi-Juris-Copy"></path>
            </g>
        </g>
    </g>
</svg>