<svg xmlns="http://www.w3.org/2000/svg" xmlns:xlink="http://www.w3.org/1999/xlink" viewBox="0 0 126.04 126.04"><defs><style>.cls-1{fill:none;}.cls-2{fill:#967759;}.cls-3{clip-path:url(#clip-path);}.cls-4{fill:#fec49c;}.cls-4,.cls-5,.cls-6,.cls-7{fill-rule:evenodd;}.cls-5{fill:#d2a487;}.cls-6{fill:#604530;}.cls-7{fill:#393a55;}</style><clipPath id="clip-path"><circle class="cls-1" cx="63.02" cy="63.02" r="63.02" transform="translate(-9.32 115.08) rotate(-80.74)"/></clipPath></defs><title>Artboard 10</title><g id="OBJECTS"><circle class="cls-2" cx="63.02" cy="63.02" r="63.02" transform="translate(-9.32 115.08) rotate(-80.74)"/><g class="cls-3"><path class="cls-4" d="M51.44,87.73l1.21,5.4c1.22,5.49,1.14,5.83-3.44,8.2-7.44,3.84-20.28,6-24.71,13.15-1.61,2.59-1.74,5.79-1.74,11h80.52c0-5.22-.13-8.42-1.73-11-3.19-5.13-10.72-7.69-17.46-10.16a64.07,64.07,0,0,1-7.26-3c-4.57-2.37-4.66-2.71-3.43-8.2l1.2-5.4C59.3,79.65,66.74,79.65,51.44,87.73Z"/><path class="cls-5" d="M79.3,102.47s-4,4-8.41,4.06-14.44-7-18.57-14.88L50.8,85.26l15.51-6.63L77.15,85,74.6,87.73l-1.84,8.81s-.68,2.36,2.59,4S79.3,102.47,79.3,102.47Z"/><path class="cls-4" d="M42.6,56.49c-.43,0-3.56-3.88-5.65-1S38.3,73,43.14,72.73A24.85,24.85,0,0,0,42.6,56.49Z"/><path class="cls-4" d="M49.84,87.43c10.32,11.16,16,11.16,26.35,0,8.09-8.78,7.14-18.12,7.59-29.54a35.69,35.69,0,0,0-1.66-13.51c-5.87-15.66-32.34-15.66-38.21,0-1.44,3.84-1.85,8.57-1.66,13.51C42.7,69.31,41.74,78.65,49.84,87.43Z"/><path class="cls-6" d="M76,36.54S70.73,45.33,56.47,50,41.34,72.15,41.34,72.15a24.24,24.24,0,0,1-7.16-14.26C30.72,32.2,47.38,18.5,63.74,18.44c22.55-.08,30.71,22.35,26.85,41.07-.82,4-1.89,8.05-3,9.07-2.29,2.16-3.9-12.09-3.9-12.09S73,46.27,76,36.54Z"/><path class="cls-4" d="M83.36,56.49c.43,0,3.55-3.88,5.65-1S87.66,73,82.82,72.73A24.85,24.85,0,0,1,83.36,56.49Z"/><path class="cls-7" d="M43.33,103.81c-1.91.72-3.93,1.43-5.92,2.19v19.49H89V106.15c-2.1-.82-4.25-1.58-6.29-2.34a20.7,20.7,0,0,1-39.38,0Z"/><path class="cls-6" d="M47.83,85s.33,12.76-9.29,20-10.65,20.46-10.65,20.46H51.24s4.93-27.79.6-36Z"/></g></g></svg>