<svg xmlns="http://www.w3.org/2000/svg" xmlns:xlink="http://www.w3.org/1999/xlink" viewBox="0 0 126.04 127.39"><defs><style>.cls-1{fill:none;}.cls-2{fill:#967759;}.cls-3{clip-path:url(#clip-path);}.cls-4{fill:#fec49c;}.cls-4,.cls-5,.cls-6,.cls-7,.cls-8,.cls-9{fill-rule:evenodd;}.cls-5{fill:#d2a588;}.cls-6{fill:#7d372e;}.cls-7{fill:#393a55;}.cls-8{fill:#d1d3d4;}.cls-9{fill:#e6e7e8;}</style><clipPath id="clip-path"><circle class="cls-1" cx="63.02" cy="63.02" r="63.02"/></clipPath></defs><title>Artboard 1</title><g id="OBJECTS"><circle class="cls-2" cx="63.02" cy="63.02" r="63.02"/><g class="cls-3"><path class="cls-4" d="M77.29,89.93c-.57,2.55-1.2,8.27-.2,11,.38,1,19.74,8.43,22,9.35,4.8,1.92,9,3.89,10.83,5.85,2,2.23,3.57,6.12,3.57,11.3H14.75c0-5.18,1.54-9.07,3.58-11.3,1.8-2,6-3.93,10.83-5.85,2.3-.92,21.66-8.34,22-9.35,1-2.69.37-8.41-.19-11C66.71,81.63,61.46,81.57,77.29,89.93Z"/><path class="cls-5" d="M82.2,103.45s-5.37,7.64-9.57,8.1c-6.3.69-7.78-1.41-11.94-5.53-3.48-3.44-7.68-8-9-11.18,0,0-.72-6.25-1.18-7.31S62.15,82,62.15,82l12.28-.23,2.86,8.2s-1.54,7.69-.2,11Z"/><path class="cls-4" d="M43.35,73.46a6.33,6.33,0,0,1-6.42-2c-2.69-3.15-7.59-17.83,3.86-15.79Z"/><path class="cls-4" d="M84.33,73.46a6.33,6.33,0,0,0,6.42-2c2.69-3.15,7.59-17.83-3.86-15.79Z"/><path class="cls-4" d="M76.81,92.45c-11.26,12.12-14.64,12.12-25.9,0C43.43,84.39,42.14,76,41.63,66.08c-.46-9-2.94-21.29,2-27.15,7.71-9.22,32.81-9.22,40.52,0,4.91,5.86,2.43,18.19,2,27.15C85.58,76,84.29,84.39,76.81,92.45Z"/><path class="cls-6" d="M39.77,64.81h1.77s-3.36-19.6,2.73-22.71c0,0,4-4.28,14.09-1.66S83.05,64.67,88,64.74c0,0,1.23-.21,2.77-8.45,5.06-27.07-9.63-39.51-36.3-36.52,0,0-15,2.73-14.38,16.1,0,0-4.9.55-3.95,10.17A115.62,115.62,0,0,0,39.77,64.81Z"/><path class="cls-7" d="M76.6,95.37a15.66,15.66,0,0,0,.49,5.52c.38,1,19.74,8.43,22,9.35,4.8,1.92,9,3.89,10.83,5.85,2,2.23,3.57,6.12,3.57,11.3H14.75c0-5.18,1.54-9.07,3.58-11.3,1.8-2,6-3.93,10.83-5.85,2.3-.92,21.66-8.34,22-9.35a13.81,13.81,0,0,0,.52-4.78,15.86,15.86,0,0,0,24.89-.74Z"/><path class="cls-8" d="M46.73,127.39h-32c0-5.18,1.54-9.07,3.58-11.3,1.8-2,6-3.94,10.83-5.85.92-.37,4.69-1.84,8.87-3.52Z"/><polygon class="cls-9" points="34.65 108.09 42.47 127.39 46.73 127.39 38.04 106.75 34.65 108.09"/><path class="cls-8" d="M81.56,127.39h32c0-5.18-1.53-9.07-3.57-11.3-1.8-2-6-3.94-10.83-5.85-.93-.37-4.69-1.84-8.87-3.52Z"/><polygon class="cls-9" points="93.64 108.09 85.82 127.39 81.56 127.39 90.25 106.75 93.64 108.09"/></g></g></svg>