<svg xmlns="http://www.w3.org/2000/svg" xmlns:xlink="http://www.w3.org/1999/xlink" viewBox="0 0 126.04 126.04"><defs><style>.cls-1{fill:none;}.cls-2{fill:#967759;}.cls-3{clip-path:url(#clip-path);}.cls-4{fill:#604530;}.cls-4,.cls-5,.cls-6,.cls-8,.cls-9{fill-rule:evenodd;}.cls-5{fill:#fec49c;}.cls-6{fill:#d2a487;}.cls-7{fill:#e6e7e8;}.cls-8{fill:#575465;}.cls-9{fill:#c4495e;}</style><clipPath id="clip-path"><circle class="cls-1" cx="63.02" cy="63.02" r="63.02"/></clipPath></defs><title>Artboard 12</title><g id="OBJECTS"><circle class="cls-2" cx="63.02" cy="63.02" r="63.02"/><g class="cls-3"><path class="cls-4" d="M27.79,79.52c-1.68-9.93-2.53-33.24,8.87-47.74,5.57-7.08,14.06-12.06,26.81-12.35,32.23-.74,38,39,33.82,59.26C93.38,97.91,30.71,96.82,27.79,79.52Z"/><path class="cls-5" d="M50.81,86.76l1.27,5.69c1.29,5.78,1.2,6.15-3.62,8.64-7.85,4-21.4,6.36-26.07,13.87-1.69,2.73-1.83,6.11-1.83,11.62h84.92c0-5.51-.13-8.89-1.83-11.62-4.66-7.51-18.22-9.82-26.06-13.87-4.83-2.49-4.92-2.86-3.63-8.64l1.27-5.69C59.1,78.23,66.94,78.23,50.81,86.76Z"/><path class="cls-6" d="M80.19,102.3s-4.21,4.23-8.87,4.28-15.23-7.4-19.59-15.7l-1.6-6.74,16.36-7,11.43,6.7-2.69,2.91L73.29,96s-.71,2.49,2.73,4.22S80.19,102.3,80.19,102.3Z"/><path class="cls-5" d="M49.12,86.43C60,98.21,66,98.21,76.91,86.43c8.54-9.25,7.53-19.11,8-31.15.21-5.21-.23-10.2-1.75-14.25C77,24.52,49.06,24.52,42.87,41c-1.52,4-2,9-1.75,14.25C41.59,67.32,40.58,77.18,49.12,86.43Z"/><path class="cls-4" d="M34.36,69.08s25.09-12.78,33.85-29c0,0,12,24.58,22,28.1l-.91-27.51L73.41,27.58H49.69L31.4,50.83Z"/><rect class="cls-7" x="43.43" y="115.84" width="42.93" height="10.73"/><path class="cls-8" d="M47.79,101.42a57.54,57.54,0,0,1-5.33,2.22C35,106.44,26,109.14,22.39,115c-1.69,2.73-1.83,6.11-1.83,11.62H58.81Z"/><path class="cls-8" d="M78.25,101.42c7.92,3.86,20.86,6.23,25.4,13.54,1.7,2.73,1.83,6.11,1.83,11.62H67.24Z"/><polygon class="cls-9" points="42.85 103.47 53.35 126.58 58.81 126.58 47.8 101.42 42.85 103.47"/><polygon class="cls-9" points="83.2 103.47 72.7 126.58 67.24 126.58 78.25 101.42 83.2 103.47"/></g></g></svg>