<?xml version="1.0" encoding="UTF-8"?>
<svg width="936px" height="327px" viewBox="0 0 936 327" version="1.1" xmlns="http://www.w3.org/2000/svg" xmlns:xlink="http://www.w3.org/1999/xlink">
    <!-- Generator: Sketch 51 (57462) - http://www.bohemiancoding.com/sketch -->
    <title>nuvens</title>
    <desc>Created with Sketch.</desc>
    <defs></defs>
    <g id="Page-1" stroke="none" stroke-width="1" fill="none" fill-rule="evenodd">
        <g id="Artboard" transform="translate(-201.000000, -91.000000)" fill="#FFFFFF">
            <g id="Hero-Shot" transform="translate(1.000000, 0.000000)">
                <g id="nuvens" transform="translate(200.000000, 91.000000)">
                    <g id="Group-2">
                        <path d="M705.478109,273.350304 C695.030491,273.350304 685.305363,273.914193 677.124143,274.884444 C675.760107,272.163326 672.182634,270.217808 667.97161,270.217808 C664.939752,270.217808 662.230666,271.225183 660.44193,272.804475 C657.290157,268.085664 650.544923,264.815707 642.70846,264.815707 C634.107537,264.815707 626.817687,268.749889 624.157567,274.219215 C621.023781,271.775025 616.345087,270.217808 611.108786,270.217808 C607.602264,270.217808 604.344566,270.916148 601.632482,272.112155 C600.784081,261.983216 589.691919,253.961338 576.094526,253.961338 C570.31461,253.961338 565.000364,255.426246 560.714393,257.869433 C560.715392,257.783144 560.722387,257.698861 560.722387,257.612572 C560.722387,240.705924 543.192773,227 521.569051,227 C506.761513,227 493.876617,233.42854 487.223318,242.909307 C485.840295,241.962133 484.19146,241.40627 482.415715,241.40627 C477.810968,241.40627 474.037634,245.114696 473.651907,249.837521 C472.2469,249.636848 470.813912,249.509421 469.341952,249.509421 C455.554694,249.509421 444.343615,258.70423 443.776016,270.218811 C443.758029,270.218811 443.740041,270.217808 443.722054,270.217808 C423.441383,270.217808 407,276.667418 407,284.623075 C407,292.579735 423.441383,299.029345 443.722054,299.029345 C455.696593,299.029345 466.33008,296.779808 473.034343,293.301152 C485.112809,299.649423 509.700437,304 538.090378,304 C562.06344,304 583.336409,300.900615 596.649003,296.113575 C601.796366,299.285202 613.977759,301.514673 628.188719,301.514673 C640.086312,301.514673 650.558913,299.951435 656.675591,297.58049 C660.459917,298.494553 664.873799,299.029345 669.609453,299.029345 C680.407823,299.029345 689.592334,296.293177 693.175802,292.457325 C697.124012,292.63191 701.240104,292.727229 705.478109,292.727229 C734.484615,292.727229 758,288.388692 758,283.037763 C758,277.686834 734.484615,273.350304 705.478109,273.350304" id="Fill-3"></path>
                        <path d="M878.220867,258.620486 C867.613163,258.620486 857.681547,259.195495 849.137063,260.195511 C849.191989,259.674503 849.228939,259.150494 849.228939,258.620486 C849.228939,245.828283 833.263455,235.458118 813.570994,235.458118 C803.232926,235.458118 793.928466,238.318164 787.415243,242.884236 C779.179343,233.950094 764.510112,228 747.774666,228 C722.003397,228 701.110554,242.103224 701.110554,259.5005 C701.110554,259.705503 701.127531,259.907506 701.133523,260.11151 C693.291092,261.613534 687.6457,265.755599 687.6457,270.641677 C687.6457,271.44169 687.803487,272.221702 688.091099,272.973714 C670.085365,274.134732 657,277.638788 657,281.782854 C657,286.873935 676.749384,291 701.110554,291 C712.288489,291 722.487744,290.129986 730.261268,288.697963 C735.669979,290.177987 741.579015,291 747.774666,291 C757.947955,291 767.354279,288.795965 775.021945,285.064906 C785.232185,288.680963 800.94501,291 818.583239,291 C841.291636,291 860.81133,287.157939 869.491631,281.650852 C872.337796,281.736853 875.252867,281.782854 878.220867,281.782854 C910.131862,281.782854 936,276.597771 936,270.20167 C936,263.805568 910.131862,258.620486 878.220867,258.620486" id="Fill-10"></path>
                        <path d="M291.581471,196.928015 C283.977573,196.928015 276.857967,197.302747 270.73291,197.953336 C270.770855,197.613211 270.798814,197.273085 270.798814,196.928015 C270.798814,188.602841 259.354522,181.853715 245.237134,181.853715 C237.825954,181.853715 231.155693,183.715509 226.487508,186.686667 C220.583129,180.872887 210.067481,177 198.070996,177 C179.596968,177 164.619835,186.178455 164.619835,197.500494 C164.619835,197.633974 164.631818,197.765476 164.635812,197.897967 C159.01402,198.875829 154.967927,201.571129 154.967927,204.75091 C154.967927,205.271975 155.080762,205.779198 155.286462,206.268623 C142.379306,207.024019 133,209.305038 133,212.001326 C133,215.315576 147.156332,218 164.619835,218 C172.632137,218 179.943463,217.434442 185.515328,216.502062 C189.393665,217.465093 193.629481,218 198.070996,218 C205.36335,218 212.106505,216.565341 217.603479,214.137989 C224.921794,216.491186 236.185349,218 248.830887,218 C265.107124,218 279.101692,215.50047 285.322609,211.916295 C287.363629,211.972653 289.453578,212.001326 291.581471,212.001326 C314.456074,212.001326 333,208.627752 333,204.465165 C333,200.301589 314.456074,196.928015 291.581471,196.928015" id="Fill-5"></path>
                        <path d="M601.842982,117.903116 C594.253392,117.903116 587.186981,118.291801 581.243954,118.959259 C580.252616,117.086779 577.653729,115.746866 574.594685,115.746866 C572.391934,115.746866 570.424262,116.440303 569.124819,117.527421 C566.835038,114.280056 561.934366,112.028882 556.240423,112.028882 C549.993292,112.028882 544.696485,114.736685 542.763825,118.501631 C540.488049,116.818996 537.088889,115.746866 533.284591,115.746866 C530.736722,115.746866 528.369914,116.228475 526.400242,117.050808 C525.784032,110.078465 517.725283,104.556944 507.846912,104.556944 C503.64748,104.556944 499.787163,105.566126 496.6721,107.247761 C496.6731,107.188809 496.679102,107.129857 496.679102,107.070905 C496.679102,95.4343457 483.943757,86 468.234398,86 C457.476727,86 448.115534,90.4254096 443.281884,96.9511151 C442.277542,96.2986445 441.079133,95.915955 439.789693,95.915955 C436.444552,95.915955 433.703617,98.4688837 433.422521,101.720246 C432.402173,101.581359 431.360817,101.49343 430.292453,101.49343 C420.275035,101.49343 412.130256,107.822295 411.718116,115.746866 L411.678102,115.746866 C396.945075,115.746866 385,120.186264 385,125.662821 C385,131.139377 396.945075,135.577777 411.678102,135.577777 C420.379071,135.577777 428.102706,134.030032 432.973367,131.634975 C441.748361,136.00543 459.611456,139 480.237493,139 C497.653435,139 513.107707,136.865732 522.780007,133.570405 C526.519283,135.754633 535.368302,137.288389 545.692825,137.288389 C554.336774,137.288389 561.944369,136.213261 566.388886,134.581585 C569.137823,135.210075 572.344918,135.577777 575.784091,135.577777 C583.629768,135.577777 590.302044,133.695304 592.904932,131.054446 C595.773911,131.175348 598.763931,131.240296 601.842982,131.240296 C622.916171,131.240296 640,128.254718 640,124.570707 C640,120.888694 622.916171,117.903116 601.842982,117.903116" id="Fill-1"></path>
                        <path d="M467.675506,208.26237 C464.861417,208.26237 462.226909,208.416702 459.961592,208.687549 C459.975638,208.546504 459.98567,208.405459 459.98567,208.26237 C459.98567,204.809836 455.750993,202.012445 450.527121,202.012445 C447.786269,202.012445 445.318298,202.784104 443.589715,204.015692 C441.405662,201.604641 437.515096,200 433.076761,200 C426.240683,200 420.699787,203.805146 420.699787,208.499489 C420.699787,208.55468 420.7038,208.609872 420.705807,208.665063 C418.625086,209.069801 417.127249,210.18794 417.127249,211.506403 C417.127249,211.722059 417.169385,211.932604 417.245631,212.134973 C412.471211,212.448746 409,213.394156 409,214.512295 C409,215.88595 414.237917,217 420.699787,217 C423.664362,217 426.369097,216.764925 428.430756,216.377563 C429.86539,216.778212 431.433454,217 433.076761,217 C435.774474,217 438.269533,216.405158 440.303101,215.397403 C443.010846,216.374496 447.178306,217 451.856415,217 C457.879869,217 463.057591,215.962604 465.359024,214.476523 C466.114464,214.501052 466.887962,214.512295 467.675506,214.512295 C476.139844,214.512295 483,213.113088 483,211.387843 C483,209.661576 476.139844,208.26237 467.675506,208.26237" id="Fill-12"></path>
                        <path d="M850.597934,251.290497 C846.300511,251.290497 842.278218,251.428185 838.81815,251.665918 C838.84008,251.541108 838.855033,251.416298 838.855033,251.290497 C838.855033,248.244535 832.388463,245.775078 824.412661,245.775078 C820.225888,245.775078 816.457793,246.456581 813.819129,247.543221 C810.484663,245.415506 804.542437,244 797.764849,244 C787.326826,244 778.865557,247.356997 778.865557,251.499505 C778.865557,251.549033 778.872535,251.59757 778.874529,251.645117 C775.697566,252.003698 773.410791,252.989302 773.410791,254.153206 C773.410791,254.343393 773.475586,254.529618 773.592218,254.707918 C766.300255,254.984283 761,255.818332 761,256.804926 C761,258.017368 768.99873,259 778.865557,259 C783.392256,259 787.523205,258.792974 790.67126,258.451232 C792.862338,258.80486 795.254779,259 797.764849,259 C801.88583,259 805.694796,258.475996 808.799986,257.586476 C812.935919,258.44826 819.299814,259 826.444243,259 C835.64019,259 843.546212,258.085716 847.062105,256.774219 C848.214464,256.795021 849.395732,256.804926 850.597934,256.804926 C863.522103,256.804926 874,255.570693 874,254.048207 C874,252.524731 863.522103,251.290497 850.597934,251.290497" id="Fill-14"></path>
                        <path d="M267.40278,268.861554 C265.273962,268.861554 263.279879,268.952136 261.565247,269.110654 C261.576225,269.028307 261.58421,268.944931 261.58421,268.861554 C261.58421,266.830674 258.379505,265.184766 254.42627,265.184766 C252.351346,265.184766 250.484014,265.638703 249.176582,266.363356 C247.523828,264.944931 244.579611,264 241.22021,264 C236.047371,264 231.853609,266.238806 231.853609,269.000515 C231.853609,269.033453 231.857601,269.065363 231.858599,269.097272 C230.284691,269.336078 229.150918,269.993824 229.150918,270.769943 C229.150918,270.896552 229.182855,271.020072 229.240741,271.139475 C225.62684,271.323726 223,271.880597 223,272.537313 C223,273.345342 226.963215,274 231.853609,274 C234.097202,274 236.144181,273.862069 237.704117,273.635615 C238.789984,273.870304 239.976653,274 241.22021,274 C243.262199,274 245.149492,273.650026 246.689467,273.058157 C248.738442,273.632527 251.892247,274 255.432294,274 C259.99034,274 263.908644,273.390633 265.651221,272.516727 C266.222099,272.530108 266.806951,272.537313 267.40278,272.537313 C273.808198,272.537313 279,271.713845 279,270.698919 C279,269.683994 273.808198,268.861554 267.40278,268.861554" id="Fill-16"></path>
                        <path d="M50.7455503,71.374548 C48.3127085,71.374548 46.0334778,71.456433 44.0744366,71.5992068 C44.0864063,71.5246705 44.0953836,71.4501341 44.0953836,71.374548 C44.0953836,69.5468331 40.4326548,68.0655546 35.9160874,68.0655546 C33.5440915,68.0655546 31.4094947,68.4739298 29.915277,69.1258603 C28.0270565,67.8503441 24.6615754,67 20.823291,67 C14.9102584,67 10.1193853,69.0145807 10.1193853,71.5005249 C10.1193853,71.5288697 10.1223777,71.5582643 10.1233752,71.5876589 C8.32492753,71.8018197 7.03020479,72.3939111 7.03020479,73.0909833 C7.03020479,73.2054123 7.0661139,73.3166919 7.13094978,73.4248221 C3.0014027,73.5906917 0,74.0904001 0,74.6824915 C0,75.4100082 4.53053209,76 10.1193853,76 C12.6828964,76 15.0229731,75.8750729 16.8054612,75.6703604 C18.0463203,75.8813717 19.4008915,76 20.823291,76 C23.1563854,76 25.3139241,75.6840079 27.0734703,75.1517555 C29.4145444,75.6682608 33.0204171,76 37.0651788,76 C42.2749914,76 46.7526573,75.4509507 48.7436177,74.663595 C49.3959665,74.6761927 50.0642748,74.6824915 50.7455503,74.6824915 C58.0660204,74.6824915 64,73.9423772 64,73.0290447 C64,72.1146623 58.0660204,71.374548 50.7455503,71.374548" id="Fill-20"></path>
                        <path d="M381.888311,4.374548 C380.215345,4.374548 378.648931,4.45643299 377.302591,4.59920681 C377.309562,4.52572028 377.315537,4.45013414 377.315537,4.374548 C377.315537,2.54683308 374.798122,1.06660446 371.693176,1.06660446 C370.062035,1.06660446 368.594206,1.47497959 367.567523,2.12691007 C366.267987,0.850344104 363.954713,0 361.315809,0 C357.251895,0 353.95675,2.01458066 353.95675,4.5005249 C353.95675,4.52886971 353.958742,4.55826432 353.959737,4.58765893 C352.722938,4.80181967 351.832681,5.39391112 351.832681,6.09203313 C351.832681,6.20646215 351.858572,6.31774175 351.903384,6.42482212 C349.063325,6.59069171 347,7.0914499 347,7.68249154 C347,8.41000817 350.114903,9 353.95675,9 C355.719339,9 357.327577,8.8750729 358.553423,8.67036043 C359.406835,8.88242156 360.33792,9 361.315809,9 C362.920063,9 364.403825,8.68400793 365.612742,8.15175551 C367.222972,8.66826082 369.70155,9 372.482856,9 C376.0638,9 379.142854,8.45095066 380.511101,7.66464482 C380.960213,7.67724251 381.420278,7.68249154 381.888311,7.68249154 C386.92115,7.68249154 391,6.94237723 391,6.02904468 C391,5.11571212 386.92115,4.374548 381.888311,4.374548" id="Fill-22"></path>
                        <path d="M652.887521,192.374008 C651.214593,192.374008 649.648214,192.455903 648.301906,192.599743 C648.309872,192.525198 648.315847,192.449603 648.315847,192.374008 C648.315847,190.54713 645.798488,189.065679 642.692618,189.065679 C641.061513,189.065679 639.593717,189.474102 638.567057,190.126108 C637.268547,188.850443 634.954329,188 632.31648,188 C628.251663,188 624.956593,190.014816 624.956593,192.5 C624.956593,192.528348 624.95958,192.558796 624.960576,192.587144 C623.723804,192.80133 622.832571,193.39349 622.832571,194.091694 C622.832571,194.206136 622.858462,194.317429 622.903273,194.424522 C620.063278,194.590411 618,195.091227 618,195.682338 C618,196.410989 621.114833,197 624.956593,197 C626.720138,197 628.328339,196.875058 629.553162,196.671372 C630.406554,196.882408 631.338614,197 632.31648,197 C633.919703,197 635.403431,196.683971 636.612321,196.152706 C638.222514,196.668222 640.701037,197 643.483275,197 C647.063142,197 650.142126,196.450887 651.511338,195.664489 C651.959444,195.677088 652.419499,195.682338 652.887521,195.682338 C657.920246,195.682338 662,194.942137 662,194.028698 C662,193.115259 657.920246,192.374008 652.887521,192.374008" id="Fill-25"></path>
                        <path d="M358.581163,320.445942 C355.843332,320.445942 353.312717,320.562526 351.260595,320.761226 C351.305642,320.624366 351.337675,320.485479 351.337675,320.342537 C351.337675,318.47719 347.244444,316.963623 342.196225,316.963623 C341.478483,316.963623 340.783765,316.998092 340.113072,317.054863 C339.4634,313.115332 331.542212,310 321.860204,310 C312.253273,310 304.380135,313.066671 303.625354,316.963623 L303.560287,316.963623 C296.844345,316.963623 291.400718,318.47719 291.400718,320.342537 C291.400718,320.378019 291.406724,320.412487 291.408726,320.445942 L291.400718,320.445942 C286.20835,320.445942 282,321.500268 282,322.800942 C282,324.101616 286.20835,325.155943 291.400718,325.155943 C294.08249,325.155943 296.495985,324.873099 298.208755,324.421969 C298.885455,325.873696 303.782517,327 309.72566,327 C314.652753,327 318.858101,326.225476 320.539839,325.134653 C320.977291,325.147832 321.415744,325.155943 321.860204,325.155943 C324.11053,325.155943 326.264757,324.986642 328.255815,324.680482 C330.70835,325.56348 336.273103,326.180869 342.748797,326.180869 C351.377716,326.180869 358.389965,325.084978 358.573154,323.722464 L358.581163,323.722464 C365.440253,323.722464 371,322.989504 371,322.084203 C371,321.179915 365.440253,320.445942 358.581163,320.445942" id="Fill-31"></path>
                        <path d="M261.278674,98.7472656 C257.371044,98.7472656 253.761385,98.9125824 250.831662,99.1921182 C250.896655,98.9987476 250.941651,98.8023712 250.941651,98.6019871 C250.941651,95.9679385 245.101203,93.8308424 237.896884,93.8308424 C236.872981,93.8308424 235.881074,93.8789346 234.925165,93.9610921 C233.998252,88.3964265 222.69532,84 208.879626,84 C195.170921,84 183.935982,88.3292978 182.858084,93.8318444 C182.827087,93.8318444 182.79709,93.8308424 182.765093,93.8308424 C173.182998,93.8308424 165.413733,95.9679385 165.413733,98.6019871 C165.413733,98.6510812 165.421732,98.6991734 165.427731,98.7472656 L165.413733,98.7472656 C158.005433,98.7472656 152,100.236119 152,102.072639 C152,103.909159 158.005433,105.398013 165.413733,105.398013 C169.241371,105.398013 172.686045,104.998247 175.130814,104.361025 C176.095723,106.409952 183.083063,108 191.564262,108 C198.594597,108 204.59603,106.907907 206.995804,105.366953 C207.618745,105.384988 208.245685,105.398013 208.879626,105.398013 C212.090322,105.398013 215.164032,105.159556 218.004763,104.724722 C221.505433,105.972113 229.444682,106.843784 238.684809,106.843784 C250.999646,106.843784 261.0057,105.296819 261.265676,103.374134 L261.278674,103.374134 C271.06575,103.374134 279,102.338148 279,101.0607 C279,99.7832512 271.06575,98.7472656 261.278674,98.7472656" id="Fill-35"></path>
                    </g>
                </g>
            </g>
        </g>
    </g>
</svg>