<?xml version="1.0" encoding="UTF-8"?>
<svg width="14px" height="18px" viewBox="0 0 14 18" version="1.1" xmlns="http://www.w3.org/2000/svg" xmlns:xlink="http://www.w3.org/1999/xlink">
    <!-- Generator: Sketch 50.2 (55047) - http://www.bohemiancoding.com/sketch -->
    <title>ic-bookmark</title>
    <desc>Created with Sketch.</desc>
    <defs></defs>
    <g id="Page-1" stroke="none" stroke-width="1" fill="none" fill-rule="evenodd">
        <g id="Mobile-Copy" transform="translate(-310.000000, -586.000000)">
            <g id="Group-2" transform="translate(0.000000, 267.000000)">
                <g id="ic-bookmark" transform="translate(307.000000, 318.000000)">
                    <rect id="icon-area" x="0" y="0" width="20" height="20"></rect>
                    <path d="M4.2,16.6681728 L10,12.5253157 L15.8,16.6681728 L15.8,4 C15.8,3.00588745 14.9941125,2.2 14,2.2 L6,2.2 C5.00588745,2.2 4.2,3.00588745 4.2,4 L4.2,16.6681728 Z M6,1 L14,1 C15.6568542,1 17,2.34314575 17,4 L17,17.0568107 C17,17.6090954 16.5522847,18.0568107 16,18.0568107 C15.791577,18.0568107 15.5883626,17.9916875 15.4187618,17.8705441 L10,14 L4.58123819,17.8705441 C4.13182561,18.1915531 3.50727552,18.0874615 3.18626653,17.6380489 C3.06512313,17.4684481 3,17.2652337 3,17.0568107 L3,4 C3,2.34314575 4.34314575,1 6,1 Z" id="Rectangle-4" fill="#55585A" fill-rule="nonzero"></path>
                </g>
            </g>
        </g>
    </g>
</svg>