<?xml version="1.0" encoding="UTF-8"?>
<svg width="14px" height="15px" viewBox="0 0 14 15" version="1.1" xmlns="http://www.w3.org/2000/svg" xmlns:xlink="http://www.w3.org/1999/xlink">
    <!-- Generator: Sketch 50.2 (55047) - http://www.bohemiancoding.com/sketch -->
    <title>ic-bussola-desabilitado</title>
    <desc>Created with Sketch.</desc>
    <defs></defs>
    <g id="Page-2" stroke="none" stroke-width="1" fill="none" fill-rule="evenodd">
        <g id="Diretório---desktop" transform="translate(-8062.000000, -176.000000)" fill="#BBBBBB" fill-rule="nonzero">
            <g id="Group-5-Copy-2" transform="translate(6890.000000, 10.000000)">
                <g id="Group-5">
                    <path d="M1185.47846,166 C1185.38076,166.000745 1185.28543,166.029516 1185.20434,166.082735 L1172.29061,174.166438 C1172.06631,174.266945 1171.95111,174.512609 1172.01973,174.74409 C1172.08835,174.975572 1172.32013,175.123158 1172.56473,175.091124 L1178.74997,174.91592 C1178.97199,174.903873 1179.17533,175.036905 1179.24837,175.241994 L1181.27191,180.537038 C1181.28567,180.805822 1181.51997,181.01282 1181.79523,180.999381 C1182.0705,180.985942 1182.28248,180.757154 1182.26872,180.48837 L1185.97687,166.661881 C1186.02591,166.510203 1185.99595,166.344695 1185.89664,166.218621 C1185.79732,166.092548 1185.64118,166.02182 1185.47846,166.029201 L1185.47846,166 Z" id="ic-bussola-desabilitado"></path>
                </g>
            </g>
        </g>
    </g>
</svg>