<?xml version="1.0" encoding="UTF-8"?>
<svg width="16px" height="16px" viewBox="0 0 16 16" version="1.1" xmlns="http://www.w3.org/2000/svg" xmlns:xlink="http://www.w3.org/1999/xlink">
    <!-- Generator: Sketch 50.2 (55047) - http://www.bohemiancoding.com/sketch -->
    <title>ic-busca-desabilitado</title>
    <desc>Created with Sketch.</desc>
    <defs></defs>
    <g id="Page-2" stroke="none" stroke-width="1" fill="none" fill-rule="evenodd">
        <g id="Diretório---desktop" transform="translate(-8123.000000, -176.000000)" fill="#BBBBBB" fill-rule="nonzero">
            <g id="Group-5-Copy-2" transform="translate(6890.000000, 10.000000)">
                <g id="Group-5">
                    <g id="Group-2" transform="translate(1216.000000, 154.000000)">
                        <path d="M27.5603172,22.5605206 C26.3918967,23.7289411 24.8383407,24.3723247 23.185959,24.3723247 C21.5335773,24.3723247 19.9800214,23.7289411 18.8120075,22.5605206 C17.6433837,21.3921 17,19.8383407 17,18.1861624 C17,16.5335773 17.6433837,14.9802247 18.8120075,13.8118042 C19.9802247,12.6433837 21.5337807,12 23.185959,12 C24.8383407,12 26.3916934,12.6433837 27.5601139,13.8118042 C29.9719892,16.2238829 29.9721926,20.1484419 27.5603172,22.5605206 Z M26.6975243,14.6745971 C25.7594937,13.7369732 24.512582,13.2202735 23.185959,13.2202735 C21.8597428,13.2202735 20.6126277,13.7369732 19.6745971,14.6745971 C18.7365665,15.6126277 18.2200702,16.8597428 18.2200702,18.1863657 C18.2200702,19.5129887 18.7365665,20.7599004 19.6745971,21.6981343 C20.6124244,22.6357582 21.8593361,23.1524579 23.185959,23.1524579 C24.512582,23.1524579 25.7594937,22.6357582 26.6977276,21.6981343 C28.6337756,19.7612729 28.6335723,16.6110518 26.6975243,14.6745971 Z M32.8212597,27.8212597 C32.7020995,27.9404199 32.5459306,28 32.3899649,28 C32.2339993,28 32.0778303,27.9404199 31.9586701,27.8212597 L28.547354,24.4101469 C28.3090336,24.1718265 28.3090336,23.7858777 28.547354,23.5475573 C28.7856743,23.3092369 29.1716232,23.3092369 29.4099436,23.5475573 L32.8212597,26.9586701 C33.0595801,27.1965838 33.0595801,27.5829394 32.8212597,27.8212597 Z" id="ic-busca-desabilitado"></path>
                    </g>
                </g>
            </g>
        </g>
    </g>
</svg>