<?xml version="1.0" encoding="UTF-8"?>
<svg width="12px" height="13px" viewBox="0 0 12 13" version="1.1" xmlns="http://www.w3.org/2000/svg" xmlns:xlink="http://www.w3.org/1999/xlink">
    <!-- Generator: Sketch 50.2 (55047) - http://www.bohemiancoding.com/sketch -->
    <title>ic-bussola-filtro</title>
    <desc>Created with Sketch.</desc>
    <defs></defs>
    <g id="Page-1" stroke="none" stroke-width="1" fill="none" fill-rule="evenodd">
        <g id="Diretório---m.web" transform="translate(-270.000000, -243.000000)">
            <g id="Group-2" transform="translate(10.000000, 10.000000)">
                <g id="filtros" transform="translate(0.000000, 212.000000)">
                    <g id="Filtro-localizacao" transform="translate(258.000000, 16.000000)">
                        <g id="ic-bussola-filtro" transform="translate(0.000000, 4.000000)">
                            <rect id="icon-area" x="0" y="0" width="15" height="15"></rect>
                            <path d="M13.4563872,1.29365582 C13.5946811,1.47239854 13.6364494,1.70735405 13.5722577,1.90825697 L10.6682289,12.8779662 C10.6873876,13.258926 10.3929176,13.5825112 10.0114771,13.6014729 C9.63017136,13.620428 9.30492697,13.3278606 9.30452829,13.0373872 L7.71230055,8.79498172 C7.69910449,8.75725455 7.66169803,8.73233712 7.61252102,8.73494961 L2.78369997,8.87260514 C2.44481067,8.9177945 2.12324102,8.7093115 2.0277892,8.38147527 C1.93215791,8.05302262 2.09258421,7.7046949 2.36742243,7.58250407 L12.5084899,1.11908757 C12.6209059,1.0439714 12.7529377,1.00339753 12.8882182,1.00234724 L13.1905473,1 L13.1905473,1.08511023 C13.2936368,1.13096135 13.3854123,1.20192195 13.4563872,1.29365582 Z M2.65318661,8.10842463 C2.61226598,8.12709395 2.59166331,8.17182777 2.60386806,8.21374587 C2.61625228,8.25628039 2.6589073,8.28393488 2.73539856,8.27536194 L7.58732361,8.13553108 C7.89494635,8.11853605 8.17707485,8.30646929 8.27634594,8.59051439 L9.88501774,12.9169003 C9.88749359,12.9661312 9.93043754,13.0047606 9.98168734,13.0022129 C10.0328024,12.999672 10.0714552,12.9571974 10.0785026,12.81662 L12.996224,1.74104225 C13.0049239,1.71364656 12.9996161,1.68378912 12.9818405,1.66081445 C12.9636694,1.63732858 12.9347229,1.62397832 12.904387,1.62537928 L12.8245447,1.62906654 L2.65318661,8.10842463 Z" id="Shape" fill="#A17B4A" fill-rule="nonzero"></path>
                        </g>
                    </g>
                </g>
            </g>
        </g>
    </g>
</svg>