<?xml version="1.0" encoding="UTF-8"?>
<svg width="15px" height="15px" viewBox="0 0 15 15" version="1.1" xmlns="http://www.w3.org/2000/svg" xmlns:xlink="http://www.w3.org/1999/xlink">
    <!-- Generator: Sketch 50.2 (55047) - http://www.bohemiancoding.com/sketch -->
    <title>ic-especialidade</title>
    <desc>Created with Sketch.</desc>
    <defs></defs>
    <g id="Page-1" stroke="none" stroke-width="1" fill="none" fill-rule="evenodd">
        <g id="Diretório---m.web" transform="translate(-126.000000, -242.000000)">
            <g id="Group-2" transform="translate(10.000000, 10.000000)">
                <g id="filtros" transform="translate(0.000000, 212.000000)">
                    <g id="Filtro-especialidade" transform="translate(116.000000, 16.000000)">
                        <g id="ic-especialidade" transform="translate(0.000000, 4.000000)">
                            <rect id="icon-area" x="0" y="0" width="15" height="15"></rect>
                            <path d="M14.8611559,4.47764041 L7.64703327,0.0417811282 C7.55657988,-0.0139270427 7.4434201,-0.0139270427 7.35296671,0.0417811282 L0.138844078,4.47764041 C0.0526714171,4.53048687 0,4.6258776 0,4.72889957 C0,4.83192154 0.0526714171,4.92731227 0.138844078,4.98015872 L2.37894957,6.35755303 L1.53398516,9.37480922 C1.49750602,9.50492216 1.55259695,9.64342949 1.66724571,9.71039376 L7.35855027,13.0315171 C7.40247411,13.0570818 7.45123705,13.0698642 7.49999999,13.0698642 C7.54876293,13.0698642 7.59752587,13.0570818 7.64144973,13.0315171 L10.7717696,11.2048325 L10.7717696,12.7180632 C10.2857455,12.8483908 9.92549072,13.3009959 9.92549072,13.8394765 C9.92549072,14.4793574 10.433407,15 11.057647,15 C11.681887,15 12.1896171,14.4793574 12.1896171,13.8394765 C12.1896171,13.3009959 11.8295251,12.8483908 11.3435243,12.7180632 L11.3435243,10.8712034 L13.3327543,9.71039376 C13.447403,9.64342949 13.502494,9.50492216 13.4660148,9.37480922 L12.6210504,6.35755303 L14.8611559,4.98015872 C14.9473286,4.92731227 15,4.83192154 15,4.72889957 C15,4.6258776 14.9473286,4.53048687 14.8611559,4.47764041 Z M11.6178624,13.8394765 C11.6178624,14.1561737 11.366603,14.4139194 11.057647,14.4139194 C10.748691,14.4139194 10.4972454,14.1561737 10.4972454,13.8394765 C10.4972454,13.5227793 10.748691,13.2652244 11.057647,13.2652244 C11.366603,13.2652244 11.6178624,13.5227793 11.6178624,13.8394765 Z M7.49999999,12.4397131 L2.14556913,9.31509462 L2.88636559,6.66957608 L7.35296671,9.41601801 C7.3981934,9.44387209 7.44918975,9.45779915 7.49999999,9.45779915 C7.55081023,9.45779915 7.60180658,9.44387209 7.64703327,9.41601801 L10.7717696,7.49465812 L10.7717696,10.530444 L7.49999999,12.4397131 Z M12.8544309,9.31509462 L11.3435243,10.196791 L11.3435243,7.14309561 L12.1136344,6.66957608 L12.8544309,9.31509462 Z M12.45779,5.77457265 L11.9503856,6.08657185 L11.0073718,6.66642819 L7.65336128,4.48164682 C7.51991463,4.39465048 7.34328858,4.43528693 7.25879097,4.57169566 C7.17410725,4.70829518 7.21337817,4.88934677 7.3466387,4.97615232 L10.4590098,7.00358669 L7.49999999,8.8230693 L3.04961441,6.08657185 L2.54221002,5.77457265 L0.841625923,4.72889957 L7.49999999,0.634729837 L14.1583741,4.72889955 L12.45779,5.77457265 Z" id="Shape" fill="#A17B4A" fill-rule="nonzero"></path>
                        </g>
                    </g>
                </g>
            </g>
        </g>
    </g>
</svg>