<?xml version="1.0" encoding="UTF-8"?>
<svg width="30px" height="30px" viewBox="0 0 30 30" version="1.1" xmlns="http://www.w3.org/2000/svg" xmlns:xlink="http://www.w3.org/1999/xlink">
    <!-- Generator: Sketch 50.2 (55047) - http://www.bohemiancoding.com/sketch -->
    <title>ic-escritorio</title>
    <desc>Created with Sketch.</desc>
    <defs></defs>
    <g id="Page-1" stroke="none" stroke-width="1" fill="none" fill-rule="evenodd">
        <g id="Perfil-premium-mobile" transform="translate(-183.000000, -600.000000)">
            <g id="Group-4" transform="translate(10.000000, 10.000000)">
                <g id="Group-3" transform="translate(84.000000, 496.000000)">
                    <g id="ic-escritorio" transform="translate(89.000000, 94.000000)">
                        <rect id="icon-area" fill="#55585A" x="0" y="0" width="30" height="30" rx="15"></rect>
                        <rect id="icon-area-copy" x="6" y="6" width="18" height="18"></rect>
                        <polygon id="Shape-Copy" fill="#55585A" points="7.19999942 6.07324382 7.19999942 6.3023373 7.19999942 8.12077213 7.19999942 8.34986764 7.42295364 8.34986764 8.3426495 8.34986764 8.3426495 23.6419011 8.3426495 23.8710067 8.56560372 23.8710067 21.4204532 23.8710067 21.6434072 23.8710067 21.6434072 23.6419011 21.6434072 8.34986764 22.5770395 8.34986764 22.8000006 8.34986764 22.8000006 8.12077213 22.8000006 6.3023373 22.8000006 6.07324382 22.5770395 6.07324382 7.42295364 6.07324382"></polygon>
                        <g id="Group" transform="translate(7.200000, 6.000000)" fill="#FFFFFF" stroke="#EAE3DD" stroke-linecap="round" stroke-linejoin="round" stroke-width="0.2">
                            <path d="M6.5242049,4.20739888 L6.5242049,4.43646607 L6.5242049,6.57948742 L6.5242049,6.80855258 L6.74713124,6.80855258 L8.84063895,6.80855258 L9.06357231,6.80855258 L9.06357231,6.57948742 L9.06357231,4.43646607 L9.06357231,4.20739888 L8.84063895,4.20739888 L6.74713124,4.20739888 L6.5242049,4.20739888 Z M6.9700646,4.66553124 L8.61770559,4.66553124 L8.61770559,6.35042225 L6.9700646,6.35042225 L6.9700646,4.66553124 Z" id="Shape"></path>
                            <path d="M2.66108368,4.20739888 L2.66108368,4.43646607 L2.66108368,6.57948742 L2.66108368,6.80855258 L2.88401704,6.80855258 L4.97752476,6.80855258 L5.20045812,6.80855258 L5.20045812,6.57948742 L5.20045812,4.43646607 L5.20045812,4.20739888 L4.97752476,4.20739888 L2.88401704,4.20739888 L2.66108368,4.20739888 Z M3.1069504,4.66553124 L4.75459822,4.66553124 L4.75459822,6.35042225 L3.1069504,6.35042225 L3.1069504,4.66553124 Z" id="Shape"></path>
                            <path d="M10.3952234,4.20739888 L10.3952234,4.43646607 L10.3952234,6.57948742 L10.3952234,6.80855258 L10.6181568,6.80855258 L12.7037602,6.80855258 L12.9266935,6.80855258 L12.9266935,6.57948742 L12.9266935,4.43646607 L12.9266935,4.20739888 L12.7037602,4.20739888 L10.6181568,4.20739888 L10.3952234,4.20739888 Z M10.8410833,4.66553124 L12.4808268,4.66553124 L12.4808268,6.35042225 L10.8410833,6.35042225 L10.8410833,4.66553124 Z" id="Shape"></path>
                            <path d="M6.5242049,8.58274382 L6.5242049,8.81180899 L6.5242049,10.9629506 L6.5242049,11.1920157 L6.74713124,11.1920157 L8.84063895,11.1920157 L9.06357231,11.1920157 L9.06357231,10.9629506 L9.06357231,8.81180899 L9.06357231,8.58274382 L8.84063895,8.58274382 L6.74713124,8.58274382 L6.5242049,8.58274382 Z M6.9700646,9.04087416 L8.61770559,9.04087416 L8.61770559,10.7338854 L6.9700646,10.7338854 L6.9700646,9.04087416 Z" id="Shape"></path>
                            <path d="M2.66108368,8.58274382 L2.66108368,8.81180899 L2.66108368,10.9629506 L2.66108368,11.1920157 L2.88401704,11.1920157 L4.97752476,11.1920157 L5.20045812,11.1920157 L5.20045812,10.9629506 L5.20045812,8.81180899 L5.20045812,8.58274382 L4.97752476,8.58274382 L2.88401704,8.58274382 L2.66108368,8.58274382 Z M3.1069504,9.04087416 L4.75459822,9.04087416 L4.75459822,10.7338854 L3.1069504,10.7338854 L3.1069504,9.04087416 Z" id="Shape"></path>
                            <path d="M10.3952234,8.58274382 L10.3952234,8.81180899 L10.3952234,10.9629506 L10.3952234,11.1920157 L10.6181568,11.1920157 L12.7037602,11.1920157 L12.9266935,11.1920157 L12.9266935,10.9629506 L12.9266935,8.81180899 L12.9266935,8.58274382 L12.7037602,8.58274382 L10.6181568,8.58274382 L10.3952234,8.58274382 Z M10.8410833,9.04087416 L12.4808268,9.04087416 L12.4808268,10.7338854 L10.8410833,10.7338854 L10.8410833,9.04087416 Z" id="Shape"></path>
                            <path d="M-5.85e-07,0.0732438202 L-5.85e-07,0.302337303 L-5.85e-07,2.12077213 L-5.85e-07,2.34986764 L0.22295364,2.34986764 L1.14264949,2.34986764 L1.14264949,17.6419011 L1.14264949,17.8710067 L1.36560372,17.8710067 L14.2204532,17.8710067 L14.4434072,17.8710067 L14.4434072,17.6419011 L14.4434072,2.34986764 L15.3770395,2.34986764 L15.6000006,2.34986764 L15.6000006,2.12077213 L15.6000006,0.302337303 L15.6000006,0.0732438202 L15.3770395,0.0732438202 L0.22295364,0.0732438202 L-5.85e-07,0.0732438202 Z M0.445914495,0.531430787 L15.1540855,0.531430787 L15.1540855,1.89167865 L0.445914495,1.89167865 L0.445914495,0.531430787 Z M1.58855775,2.34986764 L13.997499,2.34986764 L13.997499,17.4128157 L9.83099793,17.4128157 L9.83099793,13.9549146 L10.4789521,13.9549146 C10.5967444,13.9569371 10.7050708,13.8468742 10.7050708,13.7258292 C10.7050708,13.6047843 10.5967444,13.4950247 10.4789521,13.4967438 C8.67819791,13.4967438 6.86924199,13.4967438 5.07226025,13.4967438 C4.95549737,13.5098899 4.86087264,13.6309348 4.87364807,13.7508876 C4.88635427,13.8708607 5.00427818,13.9680809 5.12103404,13.9549146 L5.75508648,13.9549146 L5.75508648,17.4128157 L1.58855775,17.4128157 L1.58855775,2.34986764 Z M6.20100156,13.9549146 L9.38508285,13.9549146 L9.38508285,17.4128157 L6.20100156,17.4128157 L6.20100156,13.9549146 Z" id="Shape"></path>
                        </g>
                    </g>
                </g>
            </g>
        </g>
    </g>
</svg>