<?xml version="1.0" encoding="UTF-8"?>
<svg width="15px" height="15px" viewBox="0 0 15 15" version="1.1" xmlns="http://www.w3.org/2000/svg" xmlns:xlink="http://www.w3.org/1999/xlink">
    <!-- Generator: Sketch 50.2 (55047) - http://www.bohemiancoding.com/sketch -->
    <title>ic-email</title>
    <desc>Created with Sketch.</desc>
    <defs></defs>
    <g id="Page-1" stroke="none" stroke-width="1" fill="none" fill-rule="evenodd">
        <g id="Perfil-premium-mobile" transform="translate(-93.000000, -398.000000)">
            <g id="Group-4" transform="translate(10.000000, 10.000000)">
                <g id="email" transform="translate(83.000000, 385.000000)">
                    <g id="ic-email" transform="translate(0.000000, 3.000000)">
                        <rect id="icon-area" x="0" y="0" width="15" height="15"></rect>
                        <path d="M14.7849182,7.46510295 C14.7849726,7.46739537 14.785,7.46969449 14.785,7.472 C14.7849824,7.48132934 14.785,7.49066262 14.785,7.5 C14.785,7.5021312 14.7849766,7.50425693 14.7849301,7.50637695 C14.7740876,10.1696202 13.5034722,12.2183332 11.6499551,12.2183133 C11.0460443,12.2111544 10.4747248,11.9432253 10.0737729,11.4720054 C9.89441256,11.2379193 9.77216049,10.9652031 9.71745512,10.6791482 C9.68444149,10.5178519 9.66568842,10.354953 9.66090538,10.1922955 C8.907177,10.904658 7.88201858,11.2992315 6.80930245,11.2428461 C5.96242058,11.2150052 5.16427158,10.8400557 4.6021755,10.2059957 C4.04007942,9.57193581 3.76352553,8.73459067 3.83725311,7.89245482 C4.01236034,5.71816536 5.72643445,3.98516282 7.92466667,3.785 L7.99446637,3.7859733 C8.86830856,3.71356925 9.72856914,4.03682566 10.3384903,4.66677704 C10.9484114,5.29672842 11.2437112,6.16698183 11.1430134,7.03892485 C11.065618,7.69099286 10.8703393,8.32356213 10.56701,8.90519039 L10.5045931,9.02550829 C10.4812676,9.07520562 10.4569716,9.12423676 10.4317348,9.17258412 C10.2349859,9.60750011 10.1797128,10.0950232 10.2765894,10.5684439 C10.3153372,10.7709676 10.4008168,10.961653 10.5169441,11.1138417 C10.8018453,11.4482535 11.2174249,11.643146 11.6533333,11.6483333 C13.1178348,11.6483333 14.2065157,9.8911682 14.2149506,7.49999983 C14.215,3.7914079 11.2085921,0.785 7.5,0.785 C3.7914079,0.785 0.785,3.7914079 0.785,7.5 C0.785,11.2085921 3.7914079,14.215 7.5,14.215 C7.65740115,14.215 7.785,14.3425988 7.785,14.5 C7.785,14.6574012 7.65740115,14.785 7.5,14.785 C3.4766056,14.785 0.215,11.5233944 0.215,7.5 C0.215,3.4766056 3.4766056,0.215 7.5,0.215 C11.5117557,0.215 14.7661235,3.45776276 14.7849182,7.46510295 Z M10.0613002,8.64221302 C10.3329973,8.1212373 10.507733,7.5552133 10.5768817,6.97263742 C10.6578808,6.27125524 10.4201004,5.5705124 9.92898152,5.06326484 C9.43786266,4.55601729 8.74516622,4.29572574 8.018,4.355 L7.95066356,4.35381184 C6.05449827,4.52749875 4.55826635,6.04025348 4.40524755,7.94018721 C4.34500692,8.62833623 4.57046333,9.3109693 5.02870373,9.82787716 C5.48694414,10.344785 6.13762314,10.650457 6.83361656,10.6733924 C8.11929127,10.7409264 9.32101524,10.0537997 9.91829155,8.92431053 C9.94238578,8.87188435 9.96813298,8.82010815 9.99552027,8.76906372 C9.99573507,8.76864772 10.0176617,8.72636415 10.0613002,8.64221302 Z" id="Combined-Shape" fill="#A17B4A" fill-rule="nonzero"></path>
                    </g>
                </g>
            </g>
        </g>
    </g>
</svg>