<?xml version="1.0" encoding="UTF-8"?>
<svg width="16px" height="20px" viewBox="0 0 16 20" version="1.1" xmlns="http://www.w3.org/2000/svg" xmlns:xlink="http://www.w3.org/1999/xlink">
    <!-- Generator: Sketch 50.2 (55047) - http://www.bohemiancoding.com/sketch -->
    <title>ic-export</title>
    <desc>Created with Sketch.</desc>
    <defs></defs>
    <g id="Page-1" stroke="none" stroke-width="1" fill="none" fill-rule="evenodd">
        <g id="Mobile-Copy-3" transform="translate(-230.000000, -1531.000000)">
            <g id="Actions" transform="translate(128.000000, 1531.000000)">
                <g id="ic-export" transform="translate(100.000000, 0.000000)">
                    <rect id="icon-area" x="0" y="0" width="20" height="20"></rect>
                    <path d="M14.5000194,19 L5.49998061,19 C4.12147648,19 3,17.8651793 3,16.47061 L3,7.36595942 C3,5.97111563 4.12147648,4.83684404 5.49998061,4.83684404 C5.77627855,4.83684404 5.99992245,5.06336887 5.99992245,5.3426122 C5.99992245,5.62213011 5.77627855,5.84838036 5.49998061,5.84838036 C4.6729867,5.84838036 4.00015509,6.52905315 4.00015509,7.36623399 L4.00015509,16.4708846 C4.00015509,17.3077909 4.6729867,17.9881891 5.49998061,17.9881891 L14.5000194,17.9881891 C15.3270133,17.9881891 16.0001163,17.3075163 16.0001163,16.4708846 L16.0001163,7.36595942 C16.0001163,6.52877857 15.3270133,5.84810578 14.5000194,5.84810578 C14.2239929,5.84810578 14.000349,5.62185553 14.000349,5.34233762 C14.000349,5.06309429 14.2239929,4.83656946 14.5000194,4.83656946 C15.8785235,4.83656946 17,5.97111563 17,7.36568484 L17,16.4703355 C17,17.8651793 15.8785235,19 14.5000194,19 Z M12.0065527,2.78246978 C12.2014269,2.98016418 12.2014269,3.30004469 12.0065527,3.49773909 C11.9088442,3.59658628 11.7807375,3.64600988 11.6529022,3.64600988 C11.5245241,3.64600988 11.3966888,3.59658628 11.2992517,3.49773909 L10.4584157,2.64737861 L10.4584157,10.7849907 C10.4584157,11.0645087 10.2345004,11.2910335 9.9587453,11.2910335 C9.68244737,11.2910335 9.45853205,11.0645087 9.45853205,10.7849907 L9.45853205,2.73139873 L8.70074832,3.49773909 C8.60331123,3.59658628 8.47547594,3.64600988 8.34736924,3.64600988 C8.21953395,3.64600988 8.09142724,3.59658628 7.99399015,3.49773909 C7.79857315,3.30031927 7.79857315,2.98016418 7.99399015,2.78246978 L9.6116087,1.14599951 C9.7180024,1.03809132 9.86049397,0.991413476 10,1.0012982 C10.1397774,0.991413476 10.2819976,1.03781674 10.3889341,1.14599951 L12.0065527,2.78246978 Z" id="Combined-Shape" stroke="#55585A" stroke-width="0.2" fill="#55585A" fill-rule="nonzero"></path>
                </g>
            </g>
        </g>
    </g>
</svg>