<?xml version="1.0" encoding="UTF-8"?>
<svg width="8px" height="10px" viewBox="0 0 8 10" version="1.1" xmlns="http://www.w3.org/2000/svg" xmlns:xlink="http://www.w3.org/1999/xlink">
    <!-- Generator: Sketch 50.2 (55047) - http://www.bohemiancoding.com/sketch -->
    <title>ic-location</title>
    <desc>Created with Sketch.</desc>
    <defs></defs>
    <g id="Page-1" stroke="none" stroke-width="1" fill="none" fill-rule="evenodd">
        <g id="Perfil-premium-mobile" transform="translate(-30.000000, -766.000000)" fill="#55585A" fill-rule="nonzero">
            <g id="Group-4" transform="translate(10.000000, 10.000000)">
                <g id="Group-2" transform="translate(20.000000, 751.000000)">
                    <path d="M4.0002586,5 C1.7909232,5 0,6.77005061 0,8.95350918 C0,8.97778971 0.00129299198,9.00168686 0.00181018878,9.0258396 C0.0076286527,9.16423861 0.0320662012,9.49585953 0.133953969,9.96945765 C0.391000776,11.1641875 1.14235842,12.3985329 3.33294544,14.4041047 C3.54215154,14.5956653 3.76377036,14.7937433 4.0001293,15 C4.23622964,14.7937433 4.45771916,14.5955375 4.66705456,14.4041047 C6.85751228,12.3985329 7.60912852,11.1641875 7.86617533,9.96945765 C7.9679338,9.49585953 7.99237135,9.16423861 7.99818981,9.0258396 C7.99870701,9.00181465 8,8.97778971 8,8.95350918 C8.0002586,6.77005061 6.2093354,5 4.0002586,5 Z M4.0002586,10.426315 C3.1772692,10.426315 2.50995604,9.76677912 2.50995604,8.95350918 C2.50995604,8.14011143 3.1772692,7.48057558 4.0002586,7.48057558 C4.8231187,7.48057558 5.49030256,8.14011143 5.49030256,8.95350918 C5.49030256,9.76677912 4.8231187,10.426315 4.0002586,10.426315 Z" id="ic-location"></path>
                </g>
            </g>
        </g>
    </g>
</svg>