<?xml version="1.0" encoding="UTF-8"?>
<svg width="20px" height="20px" viewBox="0 0 20 20" version="1.1" xmlns="http://www.w3.org/2000/svg" xmlns:xlink="http://www.w3.org/1999/xlink">
    <!-- Generator: Sketch 50.2 (55047) - http://www.bohemiancoding.com/sketch -->
    <title>LinkedIN_Color</title>
    <desc>Created with Sketch.</desc>
    <defs></defs>
    <g id="Page-1" stroke="none" stroke-width="1" fill="none" fill-rule="evenodd">
        <g id="Perfil-premium-mobile" transform="translate(-800.000000, -783.000000)">
            <g id="Group-5" transform="translate(780.000000, 10.000000)">
                <g id="linkedin" transform="translate(20.000000, 773.000000)">
                    <g id="LinkedIN">
                        <path d="M0,10 C0,4.47715223 4.47715223,0 10,0 C15.5228478,0 20,4.47715223 20,10 C20,15.5228478 15.5228478,20 10,20 C4.47715223,20 0,15.5228478 0,10 Z" id="back" fill="#0077B5"></path>
                        <path d="M7.06689249,8.2824368 L7.06689249,15.0914832 L4.80067381,15.0914832 L4.80067381,8.2824368 L7.06689249,8.2824368 Z M7.21615137,6.17612404 C7.21615137,6.82991795 6.72402248,7.35306154 5.9338284,7.35306154 L5.91934604,7.35306154 C5.15852401,7.35306154 4.66666667,6.82991795 4.66666667,6.17612404 C4.66666667,5.50850135 5.17350421,5 5.94876334,5 C6.72402248,5 7.20144272,5.50850135 7.21615137,6.17612404 Z M15.239744,11.1873841 L15.2396535,15.0914832 L12.9735253,15.0914832 L12.9735253,11.4486395 C12.9735253,10.5336354 12.6455903,9.90926151 11.8252095,9.90926151 C11.1991187,9.90926151 10.8261978,10.3301806 10.6624113,10.7367286 C10.6024905,10.8824279 10.5877819,11.0854307 10.5877819,11.2889307 L10.5877819,15.091664 L8.32129164,15.091664 C8.32129164,15.091664 8.35116152,8.92154328 8.32129164,8.28261756 L10.5877819,8.28261756 L10.5877819,9.24706188 C10.8885625,8.78343626 11.4272612,8.1225472 12.6304743,8.1225472 C14.1217506,8.1225472 15.239744,9.09593954 15.239744,11.1873841 Z" id="Shape" fill="#FFFFFF"></path>
                    </g>
                </g>
            </g>
        </g>
    </g>
</svg>