<?xml version="1.0" encoding="UTF-8"?>
<svg width="18px" height="16px" viewBox="0 0 18 16" version="1.1" xmlns="http://www.w3.org/2000/svg" xmlns:xlink="http://www.w3.org/1999/xlink">
    <!-- Generator: Sketch 50.2 (55047) - http://www.bohemiancoding.com/sketch -->
    <title>ic-like</title>
    <desc>Created with Sketch.</desc>
    <defs></defs>
    <g id="Page-1" stroke="none" stroke-width="1" fill="none" fill-rule="evenodd">
        <g id="Perfil-premium-mobile" transform="translate(-496.000000, -813.000000)">
            <g id="Group-7" transform="translate(395.000000, 10.000000)">
                <g id="ic-like" transform="translate(100.000000, 801.000000)">
                    <rect id="icon-area" x="0" y="0" width="20" height="20"></rect>
                    <path d="M10.0150901,18 C9.86394973,18 9.71280937,17.9702048 9.561669,17.9106145 C2.69989642,15.2290503 0.40256287,10.1936685 1.12803662,6.40968343 C1.64191386,3.72811918 3.60673861,2 6.11566867,2 C7.38524774,2 8.71528296,2.44692737 10.0150901,3.34078212 C11.3148972,2.47672253 12.6449325,2.02979516 13.8842834,2.02979516 C16.3629854,2.02979516 18.3278102,3.75791434 18.8719155,6.40968343 C19.5973892,10.1638734 17.3000557,15.16946 10.4685112,17.9404097 C10.3173708,17.9702048 10.1662305,18 10.0150901,18 Z M6.11566867,3.16201117 C4.21130007,3.16201117 2.73012449,4.5027933 2.33715954,6.61824953 C1.70237001,9.9255121 3.81833512,14.3649907 10.0150901,16.8081937 C16.181617,14.3054004 18.2975821,9.89571695 17.6627926,6.61824953 C17.2395996,4.5027933 15.788652,3.19180633 13.8842834,3.19180633 C12.7960728,3.19180633 11.5869499,3.63873371 10.377827,4.5027933 L10.0150901,4.77094972 L9.65235322,4.5027933 C8.4432303,3.63873371 7.23410738,3.16201117 6.11566867,3.16201117 Z" id="Shape" fill="#55585A" fill-rule="nonzero"></path>
                </g>
            </g>
        </g>
    </g>
</svg>