<?xml version="1.0" encoding="UTF-8"?>
<svg width="30px" height="29px" viewBox="0 0 30 29" version="1.1" xmlns="http://www.w3.org/2000/svg" xmlns:xlink="http://www.w3.org/1999/xlink">
    <!-- Generator: Sketch 50.2 (55047) - http://www.bohemiancoding.com/sketch -->
    <title>ic-social-instagram</title>
    <desc>Created with Sketch.</desc>
    <defs></defs>
    <g id="Page-1" stroke="none" stroke-width="1" fill="none" fill-rule="evenodd">
        <g id="Home" transform="translate(-1236.000000, -2875.000000)" fill="#BC9868">
            <g id="ic-social-instagram" transform="translate(1236.000000, 2875.000000)">
                <path d="M6.328125,1.36363636 C3.7059375,1.36363636 1.40625,3.16909091 1.40625,5.22727273 L1.40625,23.4090909 C1.40625,25.4672727 3.7059375,27.2727273 6.328125,27.2727273 L25.078125,27.2727273 C26.78625,27.2727273 28.125,25.5754545 28.125,23.4090909 L28.125,5.22727273 C28.125,3.09636364 26.758125,1.36363636 25.078125,1.36363636 L6.328125,1.36363636 Z M25.078125,28.6363636 L6.328125,28.6363636 C2.8978125,28.6363636 0,26.2427273 0,23.4090909 L0,5.22727273 C0,2.39363636 2.8978125,0 6.328125,0 L25.078125,0 C27.5746875,0 29.53125,2.29545455 29.53125,5.22727273 L29.53125,23.4090909 C29.53125,26.3409091 27.5746875,28.6363636 25.078125,28.6363636 Z" id="Fill-1"></path>
                <path d="M14.9332636,9.04278281 C11.3441727,9.04278281 9.12199091,11.4020484 9.12199091,13.5885328 C9.12199091,16.7814234 11.5121727,19.0115484 14.9332636,19.0115484 C17.2766727,19.0115484 19.8062182,16.9381734 19.8062182,13.5885328 C19.8062182,11.2524234 17.4389455,9.04367344 14.9332636,9.04278281 M14.9332636,20.4365484 C10.6807636,20.4365484 7.59567273,17.5562672 7.59567273,13.5885328 C7.59567273,10.2967828 10.8869455,7.61778281 14.9332636,7.61778281 C18.2837182,7.61867344 21.3334909,10.4651109 21.3334909,13.5885328 C21.3334909,17.3647828 18.4622182,20.4365484 14.9332636,20.4365484" id="Fill-16"></path>
                <path d="M24.6400364,6.11431875 C24.6400364,6.3049125 24.5044909,6.43049062 24.3011727,6.43049062 L22.9447636,6.43049062 C22.7404909,6.43049062 22.6049455,6.3049125 22.6049455,6.11431875 L22.6049455,4.84874062 C22.6049455,4.6590375 22.7404909,4.53256875 22.9447636,4.53256875 L24.3011727,4.53256875 C24.5044909,4.53256875 24.6400364,4.6590375 24.6400364,4.84874062 L24.6400364,6.11431875 Z" id="Fill-17"></path>
            </g>
        </g>
    </g>
</svg>