<?xml version="1.0" encoding="UTF-8"?>
<svg width="30px" height="29px" viewBox="0 0 30 29" version="1.1" xmlns="http://www.w3.org/2000/svg" xmlns:xlink="http://www.w3.org/1999/xlink">
    <!-- Generator: Sketch 50.2 (55047) - http://www.bohemiancoding.com/sketch -->
    <title>ic-social-linkedin</title>
    <desc>Created with Sketch.</desc>
    <defs></defs>
    <g id="Page-1" stroke="none" stroke-width="1" fill="none" fill-rule="evenodd">
        <g id="Home" transform="translate(-1186.000000, -2875.000000)" fill="#BC9868">
            <g id="ic-social-linkedin" transform="translate(1186.000000, 2875.000000)">
                <path d="M6.328125,1.36363636 C3.7059375,1.36363636 1.40625,3.16909091 1.40625,5.22727273 L1.40625,23.4090909 C1.40625,25.4672727 3.7059375,27.2727273 6.328125,27.2727273 L25.078125,27.2727273 C26.78625,27.2727273 28.125,25.5754545 28.125,23.4090909 L28.125,5.22727273 C28.125,3.09636364 26.758125,1.36363636 25.078125,1.36363636 L6.328125,1.36363636 Z M25.078125,28.6363636 L6.328125,28.6363636 C2.8978125,28.6363636 0,26.2427273 0,23.4090909 L0,5.22727273 C0,2.39363636 2.8978125,0 6.328125,0 L25.078125,0 C27.5746875,0 29.53125,2.29545455 29.53125,5.22727273 L29.53125,23.4090909 C29.53125,26.3409091 27.5746875,28.6363636 25.078125,28.6363636 Z" id="Fill-1"></path>
                <path d="M11.859375,9.81602344 L11.859375,21.1527891 L13.7334375,21.1527891 L13.7334375,14.9014922 C13.7334375,12.5680547 14.99625,11.3265234 17.5678125,11.3265234 C19.3875,11.3265234 20.2959375,12.3258047 20.2959375,14.5274297 L20.2959375,21.1527891 L22.171875,21.1527891 L22.171875,13.8220547 C22.171875,11.4672422 20.92875,9.54527344 17.919375,9.54527344 C16.1971875,9.54527344 14.364375,10.3005234 13.7334375,12.2376328 L13.7334375,9.81602344 L11.859375,9.81602344 Z" id="Fill-12"></path>
                <polygon id="Fill-13" points="6.234375 21.1416562 8.109375 21.1416562 8.109375 9.56353125 6.234375 9.56353125"></polygon>
                <polygon id="Fill-14" points="6.234375 7.79296875 8.109375 7.79296875 8.109375 6.01171875 6.234375 6.01171875"></polygon>
            </g>
        </g>
    </g>
</svg>