<?xml version="1.0" encoding="UTF-8"?>
<svg width="30px" height="29px" viewBox="0 0 30 29" version="1.1" xmlns="http://www.w3.org/2000/svg" xmlns:xlink="http://www.w3.org/1999/xlink">
    <!-- Generator: Sketch 50.2 (55047) - http://www.bohemiancoding.com/sketch -->
    <title>ic-social-facebook</title>
    <desc>Created with Sketch.</desc>
    <defs></defs>
    <g id="Page-1" stroke="none" stroke-width="1" fill="none" fill-rule="evenodd">
        <g id="Home" transform="translate(-1136.000000, -2875.000000)" fill="#BC9868">
            <g id="ic-social-facebook" transform="translate(1136.000000, 2875.000000)">
                <path d="M6.328125,1.36363636 C3.7059375,1.36363636 1.40625,3.16909091 1.40625,5.22727273 L1.40625,23.4090909 C1.40625,25.4672727 3.7059375,27.2727273 6.328125,27.2727273 L25.078125,27.2727273 C26.78625,27.2727273 28.125,25.5754545 28.125,23.4090909 L28.125,5.22727273 C28.125,3.09636364 26.758125,1.36363636 25.078125,1.36363636 L6.328125,1.36363636 Z M25.078125,28.6363636 L6.328125,28.6363636 C2.8978125,28.6363636 0,26.2427273 0,23.4090909 L0,5.22727273 C0,2.39363636 2.8978125,0 6.328125,0 L25.078125,0 C27.5746875,0 29.53125,2.29545455 29.53125,5.22727273 L29.53125,23.4090909 C29.53125,26.3409091 27.5746875,28.6363636 25.078125,28.6363636 Z" id="Fill-1"></path>
                <path d="M14.90625,27.7246701 L13.5,27.7246701 L13.5,11.6473973 C13.5,10.623761 13.9509375,10.0283064 14.330625,9.70921551 C15.2559375,8.92739733 16.6921875,8.93103369 17.735625,9.07285188 C19.141875,9.26376097 19.8590625,9.29648824 19.8665625,9.29739733 L19.8046875,10.6601246 C19.7728125,10.6592155 19.02375,10.6246701 17.5415625,10.4246701 C16.4896875,10.2792155 15.658125,10.3955791 15.253125,10.7373973 C15.0196875,10.9346701 14.90625,11.2319428 14.90625,11.6473973 L14.90625,27.7246701 Z" id="Fill-7"></path>
                <polygon id="Fill-9" points="11.2546875 16.8181818 19.2234375 16.8181818 19.2234375 15.4545455 11.2546875 15.4545455"></polygon>
            </g>
        </g>
    </g>
</svg>