<?xml version="1.0" encoding="UTF-8"?>
<svg width="12px" height="17px" viewBox="0 0 12 17" version="1.1" xmlns="http://www.w3.org/2000/svg" xmlns:xlink="http://www.w3.org/1999/xlink">
    <!-- Generator: Sketch 50.2 (55047) - http://www.bohemiancoding.com/sketch -->
    <title>ic-telefone</title>
    <desc>Created with Sketch.</desc>
    <defs></defs>
    <g id="Page-1" stroke="none" stroke-width="1" fill="none" fill-rule="evenodd">
        <g id="Perfil-premium-mobile" transform="translate(-141.000000, -422.000000)">
            <g id="Group-4" transform="translate(10.000000, 10.000000)">
                <g id="telefone" transform="translate(129.000000, 411.000000)">
                    <g id="ic-telefone" transform="translate(0.000000, 2.000000)">
                        <rect id="icon-area" x="0" y="0" width="15" height="15"></rect>
                        <path d="M10.7272,0 L5.2728,0 C4.02,0 3,0.934979223 3,2.0833537 L3,12.9166463 C3,14.0650208 4.02,15 5.2728,15 L10.7272,15 C11.98,15 13,14.0650208 13,12.9166463 L13,2.0833537 C13,0.934245906 11.98,0 10.7272,0 Z M10.7272,14.1662185 L5.2728,14.1662185 C4.5208,14.1662185 3.9088,13.605231 3.9088,12.915913 L3.9088,2.0833537 C3.9088,1.39403569 4.5208,0.833048154 5.2728,0.833048154 L10.7272,0.833048154 C11.4792,0.833048154 12.0912,1.39403569 12.0912,2.0833537 L12.0912,12.915913 C12.0912,13.605231 11.4792,14.1662185 10.7272,14.1662185 Z M8,13.7489611 C8.50191638,13.7489611 8.9088,13.3759928 8.9088,12.915913 C8.9088,12.4558332 8.50191638,12.0828648 8,12.0828648 C7.49808362,12.0828648 7.0912,12.4558332 7.0912,12.915913 C7.0912,13.3759928 7.49808362,13.7489611 8,13.7489611 Z M8.9088,1.24957223 L7.0904,1.24957223 C6.8392,1.24957223 6.636,1.43583476 6.636,1.66609631 C6.636,1.89635786 6.8392,2.08262039 7.0904,2.08262039 L8.9088,2.08262039 C9.16,2.08262039 9.3632,1.89635786 9.3632,1.66609631 C9.3632,1.43583476 9.16,1.24957223 8.9088,1.24957223 Z" id="Combined-Shape" stroke="#FFFFFF" stroke-width="0.34" fill="#A17B4A" fill-rule="nonzero"></path>
                    </g>
                </g>
            </g>
        </g>
    </g>
</svg>