<?xml version="1.0" encoding="UTF-8"?>
<svg width="60px" height="60px" viewBox="0 0 60 60" version="1.1" xmlns="http://www.w3.org/2000/svg" xmlns:xlink="http://www.w3.org/1999/xlink">
    <!-- Generator: Sketch 50.2 (55047) - http://www.bohemiancoding.com/sketch -->
    <title>img-faq</title>
    <desc>Created with Sketch.</desc>
    <defs></defs>
    <g id="Page-1" stroke="none" stroke-width="1" fill="none" fill-rule="evenodd">
        <g id="Perfil-premium-mobile" transform="translate(-415.000000, -871.000000)">
            <g id="Group-7" transform="translate(395.000000, 10.000000)">
                <g id="img-faq" transform="translate(20.000000, 861.000000)">
                    <circle id="Oval" fill="#E6DFD8" cx="30" cy="30" r="30"></circle>
                    <g id="noun_Pen_1485302" transform="translate(16.000000, 17.000000)" fill="#FFFFFF" fill-rule="nonzero">
                        <path d="M8.25511562,24.1733333 L4.2,27.3466667 C2.4673546,28.6461507 0,27.4661116 0,25.2933333 L0,4.66666667 C0,2.09786757 2.09786757,0 4.66666667,0 L23.3333333,0 C25.8837972,0 28,2.07971654 28,4.57333333 L28,19.5066667 C28,22.0754658 25.9021324,24.1733333 23.3333333,24.1733333 L8.25511562,24.1733333 Z M23.3333333,1.86666667 L4.66666667,1.86666667 C3.1287991,1.86666667 1.86666667,3.1287991 1.86666667,4.66666667 L1.86666667,25.2933333 C1.86666667,25.9083812 2.56273389,26.2412829 3.06477896,25.8649953 L7.35811229,22.5049953 C7.52231589,22.3764882 7.72482215,22.3066667 7.93333333,22.3066667 L23.3333333,22.3066667 C24.8712009,22.3066667 26.1333333,21.0445342 26.1333333,19.5066667 L26.1333333,4.57333333 C26.1333333,3.11798461 24.8600624,1.86666667 23.3333333,1.86666667 Z M17.5400337,8.113367 C17.904523,7.74887767 18.495477,7.74887767 18.8599663,8.113367 C19.2244557,8.47785634 19.2244557,9.06881032 18.8599663,9.43329966 L13.2599663,15.0332997 C12.895477,15.397789 12.304523,15.397789 11.9400337,15.0332997 L9.14003367,12.2332997 C8.77554433,11.8688103 8.77554433,11.2778563 9.14003367,10.913367 C9.50452301,10.5488777 10.095477,10.5488777 10.4599663,10.913367 L12.6,13.0534007 L17.5400337,8.113367 Z" id="Combined-Shape"></path>
                    </g>
                </g>
            </g>
        </g>
    </g>
</svg>